<svg width="56" height="56" viewBox="0 0 56 56" fill="none" xmlns="http://www.w3.org/2000/svg">
<rect width="56" height="56" rx="28" fill="#DADDDE"/>
<path fill-rule="evenodd" clip-rule="evenodd" d="M12.4108 28.5892C12.0854 28.2637 12.0854 27.7361 12.4108 27.4107L17.7141 22.1074C18.0396 21.7819 18.5672 21.7819 18.8926 22.1074C19.2181 22.4328 19.2181 22.9604 18.8926 23.2859L15.0119 27.1666L43.0001 27.1666C43.4603 27.1666 43.8334 27.5397 43.8334 27.9999C43.8334 28.4602 43.4603 28.8332 43.0001 28.8332L15.0119 28.8332L18.8926 32.714C19.2181 33.0394 19.2181 33.567 18.8926 33.8925C18.5672 34.2179 18.0396 34.2179 17.7141 33.8925L12.4108 28.5892Z" fill="#464748"/>
</svg>
