<svg width="1440" height="1024" viewBox="0 0 1440 1024" fill="none" xmlns="http://www.w3.org/2000/svg">
<g clip-path="url(#clip0_3585_38196)">
<rect width="1440" height="1024" fill="#2A2B2C"/>
<circle cx="709.5" cy="543.5" r="528.5" stroke="#464748" stroke-width="60" stroke-linecap="round"/>
<circle opacity="0.7" cx="710" cy="571" r="783" stroke="#464748" stroke-width="120" stroke-linecap="round"/>
<path d="M641.5 762L-315 1027H1703L730.5 762H641.5Z" fill="#DADDDE" stroke="#464748" stroke-width="5"/>
<path d="M139 1027L644.238 762H667L422.485 1027H139Z" fill="#464748" stroke="#464748" stroke-width="5"/>
<path d="M1233 1027L729.675 762H707L950.589 1027H1233Z" fill="#464748" stroke="#464748" stroke-width="5"/>
<path d="M951 1027L705.853 762H683V1027H951Z" fill="#C0C5C6" stroke="#464748" stroke-width="5"/>
<path d="M417 1027L660.318 762H683V1027H417Z" fill="#C0C5C6" stroke="#464748" stroke-width="5"/>
<circle cx="709.5" cy="507.5" r="349.5" stroke="#7B7F81" stroke-width="30"/>
<path d="M99.6489 482.404L126.189 421.645C127.42 418.827 131.571 419.381 132.021 422.423L138.134 463.769L174.714 458.361C177.315 457.977 179.159 460.835 177.735 463.046L136.895 526.475C135.226 529.067 131.205 527.844 131.261 524.762L132.041 482.349L102.901 486.657C100.523 487.009 98.6866 484.607 99.6489 482.404Z" fill="#C0C5C6"/>
<path fill-rule="evenodd" clip-rule="evenodd" d="M123.383 420.42C125.845 414.784 134.148 415.891 135.048 421.975L140.713 460.294L174.266 455.334C179.468 454.564 183.155 460.281 180.307 464.703L139.467 528.132C136.129 533.316 128.087 530.87 128.2 524.706L128.913 485.905L103.348 489.685C98.5917 490.388 94.9186 485.585 96.8431 481.179L123.383 420.42ZM128.992 422.87L102.453 483.629L131.592 479.321C132.482 479.19 133.385 479.457 134.061 480.051C134.736 480.645 135.116 481.506 135.1 482.405L134.32 524.818L175.161 461.389L138.58 466.797C136.908 467.044 135.352 465.889 135.105 464.217L128.992 422.87Z" fill="#C0C5C6"/>
<path fill-rule="evenodd" clip-rule="evenodd" d="M1299.93 685.507L1282.6 664.415C1282.44 664.211 1282.19 664.081 1281.93 664.055L1267.62 662.651L1298.75 700.551L1300.15 686.239C1300.18 685.975 1300.1 685.711 1299.93 685.507ZM1221.29 696.045L1261.71 662.845L1297.41 706.307L1282.34 718.684L1300.77 741.125C1304.06 745.126 1303.48 751.033 1299.48 754.319C1295.48 757.605 1289.57 757.025 1286.29 753.025L1267.85 730.583L1256.99 739.508L1221.29 696.045ZM1218.83 700.441L1252.2 741.062L1236.59 739.531L1283.37 757.115C1283.89 757.31 1284.15 757.886 1283.95 758.403L1283.01 760.918C1282.81 761.435 1282.24 761.697 1281.72 761.502L1209.01 734.17C1208.49 733.976 1208.23 733.399 1208.42 732.882L1209.37 730.367C1209.56 729.85 1210.14 729.588 1210.66 729.783L1234.47 738.734L1217.41 717.964C1217.24 717.759 1217.16 717.495 1217.19 717.231L1218.83 700.441ZM1254.81 691.047C1254.53 689.786 1253.27 688.996 1252.01 689.283C1250.75 689.571 1249.96 690.827 1250.24 692.089L1253.54 706.54C1253.72 707.332 1254.29 707.974 1255.06 708.237C1255.83 708.5 1256.68 708.346 1257.31 707.83L1263.18 703.007L1261.9 716.035C1261.78 717.323 1262.72 718.47 1264.01 718.596C1265.29 718.722 1266.44 717.78 1266.57 716.492L1268.4 697.834C1268.49 696.891 1268.01 695.984 1267.17 695.538C1266.33 695.091 1265.31 695.193 1264.58 695.794L1257.26 701.802L1254.81 691.047ZM1279.3 722.369L1272.06 728.319L1289.91 750.05C1291.55 752.05 1294.51 752.34 1296.51 750.697C1298.51 749.054 1298.8 746.101 1297.15 744.1L1279.3 722.369Z" fill="#C0C5C6"/>
</g>
<defs>
<clipPath id="clip0_3585_38196">
<rect width="1440" height="1024" fill="white"/>
</clipPath>
</defs>
</svg>
