<svg width="1440" height="1024" viewBox="0 0 1440 1024" fill="none" xmlns="http://www.w3.org/2000/svg">
<g clip-path="url(#clip0_3585_41520)">
<rect width="1440" height="1024" fill="#F0F2F2"/>
<path d="M1509.97 166.703L1303.56 275.843M1236.16 311.48L1303.56 275.843M1303.56 275.843L1228.63 128.623C1219.74 113.892 1196.29 87.2419 1173.67 98.4922C1151.05 109.742 1150.55 127.145 1153.13 134.44M1153.13 134.44L1216.07 255.365M1153.13 134.44L1138.5 107.108C1131.87 100.542 1114 89.3296 1095.59 97.0137C1077.17 104.698 1073.87 120.568 1074.52 127.543M1074.52 127.543L1157.26 287.216M1074.52 127.543C1070.93 121.551 1062.35 108.328 1056.7 103.372C1049.63 97.1766 1031.32 96.9059 1018.41 102.449C1005.49 107.992 999.628 122.905 998.468 131.116C997.54 137.686 1004.45 155.545 1008.03 163.654M1008.03 163.654C1013.56 165.733 1025.84 172.288 1030.73 181.872C1035.62 191.456 1079.05 273.349 1100.16 313.098M1008.03 163.654C1003.67 163.136 992.636 162.986 983.354 166.529C971.75 170.957 951.292 191.032 966.103 219.111C977.951 241.575 1045.24 365.134 1077.4 424.106L997.239 388.257C983.742 384.959 954.434 385.745 945.176 415.283C933.604 452.205 971.836 465.826 987.867 472.996C1038.07 495.573 1148.6 543.165 1189.05 552.912C1239.62 565.095 1289.47 571.113 1353.7 538.728C1405.09 512.819 1513.34 453.371 1561.04 426.885" stroke="#464748" stroke-width="12" stroke-linecap="round"/>
<path d="M-70.9999 847.465L128.046 733.302M128.046 733.302C123.564 722.81 118.912 697.748 136.162 681.428C157.725 661.028 183.308 670.554 197.282 680.262C202.709 684.031 213.299 691.811 224.493 700.125M128.046 733.302L316.635 868.242C338.394 880.9 392.045 898.052 451.07 872.819M384.415 788.169C382.562 778.237 376.331 755.942 366.23 746.225C353.604 734.078 332.766 725.713 302.75 728.19C278.737 730.173 262.047 726.378 256.704 724.233C248.909 718.356 236.361 708.94 224.493 700.125M224.493 700.125L163.85 519.324C160.951 506.116 160.133 478.047 180.044 471.438C191.674 467.578 202.349 468.54 211.154 472.816M277.803 632.497C265.13 594.752 238.351 515.036 232.616 498.131C228.797 486.874 221.191 477.691 211.154 472.816M211.154 472.816C204.878 456.244 198.96 420.845 225.491 411.828C258.656 400.556 276.594 430.108 282.293 442.826M282.293 442.826C286.852 453.001 320.504 555.269 336.76 605.131M282.293 442.826C285.055 435.616 293.621 420.478 305.783 417.612C320.985 414.03 344.456 416.747 356.745 452.972M356.745 452.972C366.576 481.952 389.3 553.21 399.432 585.217M356.745 452.972C358.331 447.152 364.826 434.461 378.117 430.261C394.731 425.01 413.966 432.732 422.935 447.508C431.904 462.284 485.989 619.965 491.943 635.766C497.897 651.567 567.324 788.586 493.146 847.465C479.053 858.651 464.913 866.901 451.07 872.819M451.07 872.819L38 1083" stroke="#464748" stroke-width="10" stroke-linecap="round"/>
<path d="M353.929 140.588C353.894 138.566 356.54 137.776 357.62 139.487L375.199 167.344C375.843 168.364 377.235 168.587 378.164 167.819L403.564 146.844C405.124 145.556 407.391 147.133 406.727 149.043L395.908 180.157C395.512 181.295 396.205 182.523 397.385 182.771L429.62 189.552C431.6 189.968 431.781 192.724 429.873 193.395L398.802 204.335C397.665 204.736 397.138 206.043 397.679 207.12L412.476 236.551C413.385 238.358 411.343 240.218 409.628 239.145L381.703 221.673C380.681 221.034 379.33 221.437 378.825 222.532L365.041 252.45C364.195 254.287 361.468 253.851 361.238 251.841L357.486 219.115C357.349 217.917 356.191 217.112 355.021 217.401L323.036 225.278C321.072 225.761 319.713 223.357 321.14 221.924L344.388 198.586C345.239 197.732 345.146 196.325 344.191 195.59L318.09 175.494C316.487 174.26 317.52 171.699 319.53 171.922L352.271 175.546C353.469 175.679 354.511 174.729 354.491 173.524L353.929 140.588Z" fill="#464748"/>
<path d="M1044.93 822.588C1044.89 820.566 1047.54 819.776 1048.62 821.487L1066.2 849.344C1066.84 850.364 1068.23 850.587 1069.16 849.819L1094.56 828.844C1096.12 827.556 1098.39 829.133 1097.73 831.043L1086.91 862.157C1086.51 863.295 1087.21 864.523 1088.38 864.771L1120.62 871.552C1122.6 871.968 1122.78 874.724 1120.87 875.395L1089.8 886.335C1088.66 886.736 1088.14 888.043 1088.68 889.12L1103.48 918.551C1104.38 920.358 1102.34 922.218 1100.63 921.145L1072.7 903.673C1071.68 903.034 1070.33 903.437 1069.83 904.532L1056.04 934.45C1055.2 936.287 1052.47 935.851 1052.24 933.841L1048.49 901.115C1048.35 899.917 1047.19 899.112 1046.02 899.401L1014.04 907.278C1012.07 907.761 1010.71 905.357 1012.14 903.924L1035.39 880.586C1036.24 879.732 1036.15 878.325 1035.19 877.59L1009.09 857.494C1007.49 856.26 1008.52 853.699 1010.53 853.922L1043.27 857.546C1044.47 857.679 1045.51 856.729 1045.49 855.524L1044.93 822.588Z" fill="#464748"/>
</g>
<defs>
<clipPath id="clip0_3585_41520">
<rect width="1440" height="1024" fill="white"/>
</clipPath>
</defs>
</svg>
