<svg width="1440" height="1024" viewBox="0 0 1440 1024" fill="none" xmlns="http://www.w3.org/2000/svg">
<rect width="1440" height="1024" fill="#2A2B2C"/>
<path d="M1219 759.029C1257.66 759.029 1289 755.224 1289 750.529C1289 745.835 1257.66 742.029 1219 742.029C1180.34 742.029 1149 745.835 1149 750.529C1149 755.224 1180.34 759.029 1219 759.029Z" fill="#070707"/>
<path d="M164 827.029C202.66 827.029 234 823.224 234 818.529C234 813.835 202.66 810.029 164 810.029C125.34 810.029 94 813.835 94 818.529C94 823.224 125.34 827.029 164 827.029Z" fill="#070707"/>
<path fill-rule="evenodd" clip-rule="evenodd" d="M1203.71 672.951L1349.05 649.722L1350.21 656.989L1351.37 664.255L1352.53 671.522L1345.26 672.683L1346.42 679.95L1339.16 681.112L1340.32 688.378L1333.05 689.54L1334.21 696.806L1312.41 700.291L1311.25 693.024L1303.99 694.185L1302.82 686.919L1295.56 688.08L1294.4 680.814L1287.13 681.975L1285.97 674.708L1271.44 677.031L1272.6 684.298L1265.33 685.459L1266.49 692.726L1259.22 693.887L1260.39 701.154L1253.12 702.316L1254.28 709.582L1232.48 713.066L1231.32 705.8L1224.05 706.961L1222.89 699.695L1215.63 700.856L1214.46 693.59L1207.2 694.751L1206.04 687.484L1204.87 680.218L1203.71 672.951ZM1212.14 679.056L1219.41 677.895L1220.57 685.161L1213.3 686.323L1212.14 679.056ZM1227.84 684L1220.57 685.161L1221.73 692.428L1229 691.267L1230.16 698.533L1237.43 697.372L1238.59 704.638L1245.85 703.477L1244.69 696.21L1251.96 695.049L1250.8 687.782L1243.53 688.944L1242.37 681.677L1235.1 682.839L1233.94 675.572L1226.67 676.733L1227.84 684ZM1236.26 690.105L1243.53 688.944L1244.69 696.21L1237.43 697.372L1236.26 690.105ZM1236.26 690.105L1235.1 682.839L1227.84 684L1229 691.267L1236.26 690.105ZM1299.34 665.119L1292.07 666.28L1293.24 673.547L1300.5 672.386L1301.66 679.652L1308.93 678.491L1310.09 685.757L1317.36 684.596L1318.52 691.862L1325.79 690.701L1324.62 683.434L1331.89 682.273L1330.73 675.006L1323.46 676.168L1322.3 668.901L1315.03 670.063L1313.87 662.796L1306.61 663.958L1307.77 671.224L1300.5 672.386L1299.34 665.119ZM1316.2 677.329L1308.93 678.491L1307.77 671.224L1315.03 670.063L1316.2 677.329ZM1316.2 677.329L1323.46 676.168L1324.62 683.434L1317.36 684.596L1316.2 677.329Z" fill="#7B7F81"/>
<path fill-rule="evenodd" clip-rule="evenodd" d="M98.2749 737.061L245.452 737.061V744.419V751.778V759.137H238.093V766.496H230.734V773.855H223.375V781.214H201.299V773.855H193.94V766.496H186.581V759.137H179.222V751.778H164.505V759.137H157.146V766.496H149.787V773.855H142.428V781.214H120.351V773.855H112.993V766.496H105.634V759.137H98.2749V751.778L98.2749 744.419L98.2749 737.061ZM105.634 744.419H112.993V751.778H105.634V744.419ZM120.351 751.778H112.993V759.137H120.351V766.496H127.71L127.71 773.855H135.069V766.496H142.428V759.137H135.069V751.778H127.71L127.71 744.419H120.351V751.778ZM127.71 759.137H135.069V766.496H127.71L127.71 759.137ZM127.71 759.137V751.778H120.351V759.137H127.71ZM193.94 744.419H186.581V751.778H193.94V759.137H201.299V766.496H208.658V773.855H216.016V766.496H223.375V759.137H216.016V751.778H208.658V744.419H201.299V751.778H193.94V744.419ZM208.658 759.137H201.299V751.778H208.658V759.137ZM208.658 759.137H216.016V766.496H208.658V759.137Z" fill="#7B7F81"/>
</svg>
