<svg width="1440" height="1024" viewBox="0 0 1440 1024" fill="none" xmlns="http://www.w3.org/2000/svg">
<rect width="1440" height="1024" fill="#2A2B2C"/>
<g clip-path="url(#clip0_3599_39565)">
<path d="M1064.55 1024C1064.55 932.102 1028.05 843.969 963.066 778.988C898.085 714.006 809.953 677.5 718.056 677.5C626.16 677.5 538.027 714.006 473.046 778.987C408.066 843.969 371.56 932.102 371.56 1024L636.541 1024C636.541 1002.38 645.129 981.647 660.416 966.36C675.703 951.072 696.437 942.484 718.056 942.484C739.675 942.484 760.409 951.072 775.696 966.36C790.983 981.647 799.571 1002.38 799.571 1024H1064.55Z" fill="#C0C5C6"/>
<path d="M1064.55 1024C1064.55 932.102 1028.05 843.969 963.066 778.988C898.085 714.006 809.953 677.5 718.056 677.5C626.16 677.5 538.027 714.006 473.046 778.987C408.066 843.969 371.56 932.102 371.56 1024L550.908 1024C550.908 979.669 568.518 937.154 599.864 905.807C631.211 874.46 673.726 856.85 718.056 856.85C762.387 856.85 804.902 874.46 836.248 905.807C867.595 937.154 885.205 979.669 885.205 1024H1064.55Z" fill="#7B7F81"/>
<path d="M1064.55 1024C1064.55 932.102 1028.05 843.969 963.066 778.988C898.085 714.006 809.953 677.5 718.056 677.5C626.16 677.5 538.027 714.006 473.046 778.987C408.066 843.969 371.56 932.102 371.56 1024L474.976 1024C474.976 959.53 500.586 897.701 546.173 852.115C591.759 806.528 653.587 780.917 718.056 780.917C782.525 780.917 844.353 806.528 889.94 852.115C935.526 897.701 961.136 959.53 961.136 1024H1064.55Z" fill="#070707"/>
<g clip-path="url(#clip1_3599_39565)">
<path fill-rule="evenodd" clip-rule="evenodd" d="M372.372 775.98C413.205 766.761 438.833 726.185 429.614 685.351C420.395 644.517 379.82 618.889 338.986 628.108C298.153 637.327 272.525 677.903 281.744 718.737C290.963 759.57 331.538 785.199 372.372 775.98ZM350.6 662.344C348.923 654.916 338.567 654.322 336.052 661.51L319.061 710.078C317.095 715.698 322.077 721.286 327.884 719.975L346.424 715.789L348.034 744.037C348.468 751.659 358.626 753.93 362.264 747.218L390.327 695.453C393.431 689.728 388.347 683.012 381.995 684.447L356.871 690.119L350.6 662.344Z" fill="#C0C5C6"/>
</g>
<path fill-rule="evenodd" clip-rule="evenodd" d="M1097.76 942.428C1139.62 942.428 1173.55 908.492 1173.55 866.631C1173.55 824.769 1139.62 790.834 1097.76 790.834C1055.9 790.834 1021.96 824.769 1021.96 866.631C1021.96 908.492 1055.9 942.428 1097.76 942.428ZM1101.55 826.787C1101.55 819.172 1091.58 816.312 1087.54 822.77L1060.27 866.403C1057.11 871.452 1060.74 878 1066.7 878H1085.7L1081.05 905.909C1079.8 913.44 1089.21 917.892 1094.23 912.146L1133.01 867.832C1137.3 862.931 1133.82 855.261 1127.3 855.261H1101.55V826.787Z" fill="#C0C5C6"/>
</g>
<defs>
<clipPath id="clip0_3599_39565">
<rect width="1129" height="462" fill="white" transform="translate(155 562)"/>
</clipPath>
<clipPath id="clip1_3599_39565">
<rect width="181.911" height="181.912" fill="white" transform="matrix(0.975447 -0.220233 0.220228 0.975448 246.926 633.352)"/>
</clipPath>
</defs>
</svg>
