<svg width="28" height="28" viewBox="0 0 28 28" fill="none" xmlns="http://www.w3.org/2000/svg">
<path fill-rule="evenodd" clip-rule="evenodd" d="M9 22.3334H14C16.8644 22.3334 19.4167 20.2155 19.4167 17.3334C19.4167 15.6867 18.5835 14.2895 17.3349 13.3942C18.1089 12.5735 18.5833 11.4672 18.5833 10.2501C18.5833 7.71878 16.5313 5.66675 14 5.66675H9V22.3334ZM14 14.8334H11.5V19.8334H14C15.738 19.8334 16.9167 18.5935 16.9167 17.3334C16.9167 16.0733 15.738 14.8334 14 14.8334ZM14 12.3334C15.1506 12.3334 16.0833 11.4007 16.0833 10.2501C16.0833 9.09949 15.1506 8.16675 14 8.16675L11.5 8.16675V12.3334H14Z" fill="#070707"/>
</svg>
