<svg width="24" height="24" viewBox="0 0 24 24" fill="none" xmlns="http://www.w3.org/2000/svg">
<path fill-rule="evenodd" clip-rule="evenodd" d="M21 12C21 16.9706 16.9706 21 12 21C7.02944 21 3 16.9706 3 12C3 7.02944 7.02944 3 12 3C16.9706 3 21 7.02944 21 12ZM22 12C22 17.5228 17.5228 22 12 22C6.47715 22 2 17.5228 2 12C2 6.47715 6.47715 2 12 2C17.5228 2 22 6.47715 22 12ZM12.4999 6.7434C12.4999 5.73871 11.1844 5.36142 10.6519 6.2134L7.05399 11.97C6.63771 12.6361 7.11656 13.5 7.90199 13.5H10.4096L9.79597 17.182C9.63037 18.1756 10.8716 18.763 11.5349 18.0049L16.6506 12.1585C17.2163 11.5119 16.7571 10.5 15.898 10.5H12.4999V6.7434ZM7.90199 12.5L11.4999 6.7434V11C11.4999 11.2761 11.7237 11.5 11.9999 11.5H15.898L10.7824 17.3464L11.4931 13.0822C11.5172 12.9372 11.4764 12.789 11.3814 12.6768C11.2864 12.5647 11.1468 12.5 10.9999 12.5H7.90199Z" fill="#2A2B2C"/>
</svg>
