<svg width="16" height="16" viewBox="0 0 16 16" fill="none" xmlns="http://www.w3.org/2000/svg">
<path fill-rule="evenodd" clip-rule="evenodd" d="M14.0002 8.00065C14.0002 11.3144 11.3139 14.0007 8.00016 14.0007C4.68645 14.0007 2.00016 11.3144 2.00016 8.00065C2.00016 4.68694 4.68645 2.00065 8.00016 2.00065C11.3139 2.00065 14.0002 4.68694 14.0002 8.00065ZM14.6668 8.00065C14.6668 11.6825 11.6821 14.6673 8.00016 14.6673C4.31826 14.6673 1.3335 11.6825 1.3335 8.00065C1.3335 4.31875 4.31826 1.33398 8.00016 1.33398C11.6821 1.33398 14.6668 4.31875 14.6668 8.00065ZM8.33341 4.49625C8.33341 3.82646 7.4564 3.57493 7.10141 4.14292L4.70282 7.98065C4.4253 8.42469 4.74453 9.00065 5.26816 9.00065H6.93992L6.53081 11.4553C6.42041 12.1177 7.24793 12.5093 7.69012 12.0039L11.1005 8.10632C11.4777 7.67526 11.1716 7.00065 10.5988 7.00065H8.33341V4.49625ZM5.26816 8.33399L7.66674 4.49625V7.33399C7.66674 7.51808 7.81598 7.66732 8.00007 7.66732H10.5988L7.1884 11.5649L7.6622 8.72212C7.67831 8.62547 7.65108 8.52663 7.58775 8.45186C7.52441 8.3771 7.43139 8.33399 7.33341 8.33399L5.26816 8.33399Z" fill="#FDFDFD"/>
</svg>
