<svg width="28" height="28" viewBox="0 0 28 28" fill="none" xmlns="http://www.w3.org/2000/svg">
<path fill-rule="evenodd" clip-rule="evenodd" d="M7.33333 9C6.8731 9 6.5 9.3731 6.5 9.83333C6.5 10.2936 6.8731 10.6667 7.33333 10.6667C7.79357 10.6667 8.16667 10.2936 8.16667 9.83333C8.16667 9.3731 7.79357 9 7.33333 9ZM9.41667 9.41667C9.18655 9.41667 9 9.60321 9 9.83333C9 10.0635 9.18655 10.25 9.41667 10.25H21.0833C21.3135 10.25 21.5 10.0635 21.5 9.83333C21.5 9.60321 21.3135 9.41667 21.0833 9.41667H9.41667ZM6.5 14C6.5 13.5398 6.8731 13.1667 7.33333 13.1667C7.79357 13.1667 8.16667 13.5398 8.16667 14C8.16667 14.4602 7.79357 14.8333 7.33333 14.8333C6.8731 14.8333 6.5 14.4602 6.5 14ZM7.33333 17.3333C6.8731 17.3333 6.5 17.7064 6.5 18.1667C6.5 18.6269 6.8731 19 7.33333 19C7.79357 19 8.16667 18.6269 8.16667 18.1667C8.16667 17.7064 7.79357 17.3333 7.33333 17.3333ZM9 14C9 13.7699 9.18655 13.5833 9.41667 13.5833H21.0833C21.3135 13.5833 21.5 13.7699 21.5 14C21.5 14.2301 21.3135 14.4167 21.0833 14.4167H9.41667C9.18655 14.4167 9 14.2301 9 14ZM9.41667 17.75C9.18655 17.75 9 17.9365 9 18.1667C9 18.3968 9.18655 18.5833 9.41667 18.5833H21.0833C21.3135 18.5833 21.5 18.3968 21.5 18.1667C21.5 17.9365 21.3135 17.75 21.0833 17.75H9.41667Z" fill="#070707"/>
</svg>
