<svg width="48" height="48" viewBox="0 0 48 48" fill="none" xmlns="http://www.w3.org/2000/svg">
<path d="M0 24C0 10.7452 10.7452 0 24 0C37.2548 0 48 10.7452 48 24C48 37.2548 37.2548 48 24 48C10.7452 48 0 37.2548 0 24Z" fill="#F0F2F2"/>
<path fill-rule="evenodd" clip-rule="evenodd" d="M15.5286 16.4713C15.2682 16.211 15.2682 15.7889 15.5286 15.5285C15.7889 15.2682 16.211 15.2682 16.4714 15.5285L24 23.0571L31.5286 15.5285C31.7889 15.2682 32.211 15.2682 32.4714 15.5285C32.7317 15.7889 32.7317 16.211 32.4714 16.4713L24.9428 23.9999L32.4714 31.5285C32.7317 31.7889 32.7317 32.211 32.4714 32.4713C32.211 32.7317 31.7889 32.7317 31.5286 32.4713L24 24.9427L16.4714 32.4713C16.211 32.7317 15.7889 32.7317 15.5286 32.4713C15.2682 32.211 15.2682 31.7889 15.5286 31.5285L23.0572 23.9999L15.5286 16.4713Z" fill="#070707"/>
</svg>
