<svg width="64" height="64" viewBox="0 0 64 64" fill="none" xmlns="http://www.w3.org/2000/svg">
<path fill-rule="evenodd" clip-rule="evenodd" d="M15.057 16.9431C14.5363 16.4224 14.5363 15.5782 15.057 15.0575C15.5777 14.5368 16.4219 14.5368 16.9426 15.0575L31.9998 30.1147L47.057 15.0575C47.5777 14.5368 48.4219 14.5368 48.9426 15.0575C49.4633 15.5782 49.4633 16.4224 48.9426 16.9431L33.8855 32.0003L48.9426 47.0575C49.4633 47.5782 49.4633 48.4224 48.9426 48.9431C48.4219 49.4638 47.5777 49.4638 47.057 48.9431L31.9998 33.8859L16.9426 48.9431C16.4219 49.4638 15.5777 49.4638 15.057 48.9431C14.5363 48.4224 14.5363 47.5782 15.057 47.0575L30.1142 32.0003L15.057 16.9431Z" fill="#EB5757"/>
</svg>
