<svg width="40" height="40" viewBox="0 0 40 40" fill="none" xmlns="http://www.w3.org/2000/svg">
<path d="M0 20C0 8.95431 8.95431 0 20 0C31.0457 0 40 8.95431 40 20C40 31.0457 31.0457 40 20 40C8.95431 40 0 31.0457 0 20Z" fill="#FDFDFD"/>
<path fill-rule="evenodd" clip-rule="evenodd" d="M13.6464 14.3536C13.4512 14.1583 13.4512 13.8417 13.6464 13.6464C13.8417 13.4512 14.1583 13.4512 14.3536 13.6464L20 19.2929L25.6464 13.6464C25.8417 13.4512 26.1583 13.4512 26.3536 13.6464C26.5488 13.8417 26.5488 14.1583 26.3536 14.3536L20.7071 20L26.3536 25.6464C26.5488 25.8417 26.5488 26.1583 26.3536 26.3536C26.1583 26.5488 25.8417 26.5488 25.6464 26.3536L20 20.7071L14.3536 26.3536C14.1583 26.5488 13.8417 26.5488 13.6464 26.3536C13.4512 26.1583 13.4512 25.8417 13.6464 25.6464L19.2929 20L13.6464 14.3536Z" fill="#464748"/>
</svg>
