<svg width="28" height="28" viewBox="0 0 28 28" fill="none" xmlns="http://www.w3.org/2000/svg">
<path fill-rule="evenodd" clip-rule="evenodd" d="M15.3117 9.14243C15.0955 9.06372 14.8564 9.17522 14.7777 9.39146L11.6425 18.0053C11.5638 18.2215 11.6753 18.4606 11.8915 18.5394C12.1077 18.6181 12.3468 18.5066 12.4255 18.2903L15.5607 9.67648C15.6394 9.46024 15.5279 9.22113 15.3117 9.14243ZM16.2763 18.3328C16.0966 18.1891 16.0675 17.9269 16.2112 17.7472L19.3363 13.8408L16.2112 9.93443C16.0675 9.75474 16.0966 9.49253 16.2763 9.34878C16.456 9.20502 16.7182 9.23416 16.8619 9.41385L20.1953 13.5805C20.317 13.7327 20.317 13.9489 20.1953 14.1011L16.8619 18.2678C16.7182 18.4475 16.456 18.4766 16.2763 18.3328ZM10.9269 9.34881C11.1066 9.49256 11.1357 9.75477 10.992 9.93446L7.86689 13.8408L10.992 17.7472C11.1357 17.9269 11.1066 18.1891 10.9269 18.3329C10.7472 18.4766 10.485 18.4475 10.3413 18.2678L7.00793 14.1011C6.88619 13.949 6.88619 13.7327 7.00793 13.5805L10.3413 9.41388C10.485 9.23419 10.7472 9.20505 10.9269 9.34881Z" fill="#070707"/>
</svg>
