<svg width="24" height="24" viewBox="0 0 24 24" fill="none" xmlns="http://www.w3.org/2000/svg">
<path fill-rule="evenodd" clip-rule="evenodd" d="M6.75 17C6.75 16.4477 6.30228 16 5.75 16H3V3H21V16H12C11.7729 16 11.5526 16.0773 11.3753 16.2191L6.75 19.9194V17ZM21 17H12L6.56235 21.3501C6.23497 21.612 5.75 21.3789 5.75 20.9597V17H3C2.44772 17 2 16.5523 2 16V3C2 2.44772 2.44772 2 3 2H21C21.5523 2 22 2.44772 22 3V16C22 16.5523 21.5523 17 21 17ZM7 11C7.55228 11 8 10.5523 8 10C8 9.44772 7.55228 9 7 9C6.44772 9 6 9.44772 6 10C6 10.5523 6.44772 11 7 11ZM13 10C13 10.5523 12.5523 11 12 11C11.4477 11 11 10.5523 11 10C11 9.44772 11.4477 9 12 9C12.5523 9 13 9.44772 13 10ZM17 11C17.5523 11 18 10.5523 18 10C18 9.44772 17.5523 9 17 9C16.4477 9 16 9.44772 16 10C16 10.5523 16.4477 11 17 11Z" fill="#2A2B2C"/>
</svg>
