<svg width="24" height="24" viewBox="0 0 24 24" fill="none" xmlns="http://www.w3.org/2000/svg">
<path fill-rule="evenodd" clip-rule="evenodd" d="M6.76409 16.5823L6.92984 20.0369C6.96358 20.7401 7.69401 21.1892 8.33672 20.902L11.6502 19.4211C11.8426 19.3351 12.0029 19.1906 12.1082 19.0081L12.4462 18.4228L7.25 15.4228L6.89691 16.0343C6.801 16.2005 6.7549 16.3907 6.76409 16.5823ZM7.75 14.5568L12.9462 17.5568L18.2141 8.43242L13.018 5.43242L13.518 4.56639L18.7141 7.56639L19.6962 5.8654C19.9723 5.38711 19.8084 4.77552 19.3301 4.49938L15.866 2.49938C15.3877 2.22323 14.7761 2.38711 14.5 2.8654L13.268 4.99938L13.018 5.43242L7.75 14.5568Z" fill="#070707"/>
</svg>
