<svg width="24" height="25" viewBox="0 0 24 25" fill="none" xmlns="http://www.w3.org/2000/svg">
<path fill-rule="evenodd" clip-rule="evenodd" d="M7.65752 15.9738L11.1216 17.9738L16.3594 8.90165L12.8953 6.90165L7.65752 15.9738ZM13.5029 3.84935C13.7774 3.37379 14.3877 3.21214 14.866 3.48828L18.3301 5.48828C18.8084 5.76442 18.9736 6.37379 18.699 6.84935L11.1545 19.9168C11.0498 20.0982 10.8901 20.2417 10.6982 20.3269L7.3931 21.7932C6.75201 22.0776 6.02151 21.6286 5.98608 20.9284L5.81201 17.4882C5.80235 17.2974 5.84792 17.1081 5.94328 16.9429L13.5029 3.84935ZM10.6245 18.8348L10.2885 19.4168L6.98339 20.8831L6.80931 17.4429L7.16038 16.8348L10.6245 18.8348ZM13.3925 6.04058L14.3689 4.34935L17.833 6.34935L16.8566 8.04058L13.3925 6.04058Z" fill="black"/>
</svg>
