<svg width="16" height="16" viewBox="0 0 16 16" fill="none" xmlns="http://www.w3.org/2000/svg">
<path d="M7.99992 1.33325C11.6819 1.33325 14.6666 4.31792 14.6666 7.99992C14.6682 9.04088 14.425 10.0676 13.9566 10.9973C13.9077 10.8074 13.817 10.6309 13.6913 10.4806L13.6093 10.3906L12.6666 9.44792L11.7239 10.3906L11.6459 10.4753C11.477 10.676 11.3711 10.9222 11.3414 11.1829C11.3118 11.4436 11.3597 11.7073 11.4792 11.9409C11.5987 12.1744 11.7845 12.3676 12.0132 12.4961C12.242 12.6246 12.5036 12.6827 12.7653 12.6633C12.1449 13.2984 11.4037 13.8029 10.5852 14.147C9.76679 14.491 8.88774 14.6677 7.99992 14.6666C4.31792 14.6666 1.33325 11.6819 1.33325 7.99992C1.33325 4.31792 4.31792 1.33325 7.99992 1.33325ZM7.99992 9.99992C7.07992 9.99992 6.24659 10.3733 5.64392 10.9753L5.53325 11.0913L6.16325 11.6646C6.68992 11.4546 7.32125 11.3333 7.99992 11.3333C8.60325 11.3333 9.16925 11.4293 9.65725 11.5973L9.83659 11.6639L10.4666 11.0906C10.1544 10.7466 9.77367 10.4717 9.34881 10.2839C8.92396 10.096 8.46445 9.9993 7.99992 9.99992ZM5.66659 6.66659C5.40137 6.66659 5.14701 6.77194 4.95948 6.95948C4.77194 7.14702 4.66659 7.40137 4.66659 7.66659C4.66659 7.9318 4.77194 8.18616 4.95948 8.37369C5.14701 8.56123 5.40137 8.66659 5.66659 8.66659C5.9318 8.66659 6.18616 8.56123 6.37369 8.37369C6.56123 8.18616 6.66659 7.9318 6.66659 7.66659C6.66659 7.40137 6.56123 7.14702 6.37369 6.95948C6.18616 6.77194 5.9318 6.66659 5.66659 6.66659ZM10.3333 6.66659C10.068 6.66659 9.81368 6.77194 9.62615 6.95948C9.43861 7.14702 9.33325 7.40137 9.33325 7.66659C9.33325 7.9318 9.43861 8.18616 9.62615 8.37369C9.81368 8.56123 10.068 8.66659 10.3333 8.66659C10.5985 8.66659 10.8528 8.56123 11.0404 8.37369C11.2279 8.18616 11.3333 7.9318 11.3333 7.66659C11.3333 7.40137 11.2279 7.14702 11.0404 6.95948C10.8528 6.77194 10.5985 6.66659 10.3333 6.66659Z" fill="#EB5757"/>
</svg>
