<svg width="16" height="16" viewBox="0 0 16 16" fill="none" xmlns="http://www.w3.org/2000/svg">
<path fill-rule="evenodd" clip-rule="evenodd" d="M9.99963 1.66663C9.81554 1.66663 9.6663 1.81586 9.6663 1.99996C9.6663 2.18405 9.81554 2.33329 9.99963 2.33329H13.2461L7.08652 9.10907C6.96269 9.24529 6.97273 9.45611 7.10895 9.57994C7.24517 9.70378 7.45599 9.69373 7.57982 9.55751L13.6663 2.86218V5.99996C13.6663 6.18405 13.8155 6.33329 13.9996 6.33329C14.1837 6.33329 14.333 6.18405 14.333 5.99996V1.99996C14.333 1.81586 14.1837 1.66663 13.9996 1.66663H9.99963ZM1.99984 2.33329C1.81574 2.33329 1.6665 2.48253 1.6665 2.66663V14C1.6665 14.1841 1.81574 14.3333 1.99984 14.3333H13.333C13.517 14.3333 13.6663 14.1841 13.6663 14V9.33329C13.6663 9.1492 13.517 8.99996 13.333 8.99996C13.1489 8.99996 12.9996 9.1492 12.9996 9.33329V13.6666H2.33317V2.99996H7.33317C7.51727 2.99996 7.6665 2.85072 7.6665 2.66663C7.6665 2.48253 7.51727 2.33329 7.33317 2.33329H1.99984Z" fill="#FDFDFD"/>
</svg>
