<svg width="24" height="24" viewBox="0 0 24 24" fill="none" xmlns="http://www.w3.org/2000/svg">
<g clip-path="url(#clip0_3681_6907)">
<path d="M20.0384 16.857C22.5899 14.58 23.9999 12 23.9999 12C23.9999 12 19.4999 3.75 11.9999 3.75C10.5593 3.75496 9.13502 4.05514 7.81494 4.632L8.96994 5.7885C9.94109 5.43473 10.9664 5.25252 11.9999 5.25C15.1799 5.25 17.8184 7.002 19.7519 8.9355C20.6825 9.87104 21.5167 10.8977 22.2419 12C22.1549 12.1305 22.0589 12.2745 21.9494 12.432C21.4469 13.152 20.7044 14.112 19.7519 15.0645C19.5044 15.312 19.2464 15.5565 18.9764 15.7935L20.0384 16.857Z" fill="black"/>
<path d="M16.9455 13.7645C17.2803 12.8283 17.3423 11.8163 17.1243 10.8462C16.9063 9.87607 16.4174 8.98782 15.7143 8.28476C15.0113 7.5817 14.123 7.09274 13.1529 6.87478C12.1828 6.65681 11.1708 6.7188 10.2345 7.05353L11.469 8.28803C12.0455 8.20552 12.6333 8.2584 13.1857 8.44248C13.7382 8.62655 14.2402 8.93677 14.652 9.34855C15.0638 9.76032 15.374 10.2623 15.5581 10.8148C15.7422 11.3673 15.7951 11.9551 15.7125 12.5315L16.9455 13.7645ZM12.531 15.713L13.764 16.946C12.8278 17.2808 11.8158 17.3428 10.8457 17.1248C9.87558 16.9068 8.98733 16.4179 8.28427 15.7148C7.58121 15.0117 7.09225 14.1235 6.87429 13.1534C6.65632 12.1833 6.71831 11.1713 7.05304 10.235L8.28754 11.4695C8.20503 12.046 8.25791 12.6338 8.44199 13.1862C8.62607 13.7387 8.93628 14.2407 9.34806 14.6525C9.75984 15.0643 10.2619 15.3745 10.8143 15.5586C11.3668 15.7427 11.9546 15.7955 12.531 15.713Z" fill="black"/>
<path d="M5.025 8.20475C4.755 8.44475 4.4955 8.68775 4.248 8.93525C3.31747 9.87079 2.48328 10.8974 1.758 11.9998L2.0505 12.4318C2.553 13.1518 3.2955 14.1118 4.248 15.0643C6.1815 16.9978 8.8215 18.7498 12 18.7498C13.074 18.7498 14.085 18.5503 15.03 18.2098L16.185 19.3678C14.8649 19.9446 13.4406 20.2447 12 20.2498C4.5 20.2498 0 11.9998 0 11.9998C0 11.9998 1.4085 9.41825 3.9615 7.14275L5.0235 8.20625L5.025 8.20475ZM20.469 21.5308L2.469 3.53075L3.531 2.46875L21.531 20.4688L20.469 21.5308Z" fill="black"/>
</g>
<defs>
<clipPath id="clip0_3681_6907">
<rect width="24" height="24" fill="white"/>
</clipPath>
</defs>
</svg>
