<svg width="24" height="24" viewBox="0 0 24 24" fill="none" xmlns="http://www.w3.org/2000/svg">
<path d="M24 12C24 12 19.5 3.75 12 3.75C4.5 3.75 0 12 0 12C0 12 4.5 20.25 12 20.25C19.5 20.25 24 12 24 12ZM1.7595 12C2.48477 10.8977 3.31896 9.87103 4.2495 8.9355C6.18 7.002 8.82 5.25 12 5.25C15.18 5.25 17.8185 7.002 19.752 8.9355C20.6825 9.87103 21.5167 10.8977 22.242 12C22.155 12.1305 22.059 12.2745 21.9495 12.432C21.447 13.152 20.7045 14.112 19.752 15.0645C17.8185 16.998 15.1785 18.75 12 18.75C8.82 18.75 6.1815 16.998 4.248 15.0645C3.31747 14.129 2.48328 13.1023 1.758 12H1.7595Z" fill="black"/>
<path d="M12 8.25C11.0054 8.25 10.0516 8.64509 9.34835 9.34835C8.64509 10.0516 8.25 11.0054 8.25 12C8.25 12.9946 8.64509 13.9484 9.34835 14.6517C10.0516 15.3549 11.0054 15.75 12 15.75C12.9946 15.75 13.9484 15.3549 14.6517 14.6517C15.3549 13.9484 15.75 12.9946 15.75 12C15.75 11.0054 15.3549 10.0516 14.6517 9.34835C13.9484 8.64509 12.9946 8.25 12 8.25ZM6.75 12C6.75 10.6076 7.30312 9.27226 8.28769 8.28769C9.27226 7.30312 10.6076 6.75 12 6.75C13.3924 6.75 14.7277 7.30312 15.7123 8.28769C16.6969 9.27226 17.25 10.6076 17.25 12C17.25 13.3924 16.6969 14.7277 15.7123 15.7123C14.7277 16.6969 13.3924 17.25 12 17.25C10.6076 17.25 9.27226 16.6969 8.28769 15.7123C7.30312 14.7277 6.75 13.3924 6.75 12Z" fill="black"/>
</svg>
