<svg width="48" height="48" viewBox="0 0 48 48" fill="none" xmlns="http://www.w3.org/2000/svg">
<path fill-rule="evenodd" clip-rule="evenodd" d="M23.9916 1.2002C18.3295 1.20313 12.8531 3.20852 8.54165 6.85777C4.23016 10.507 1.36472 15.5622 0.457691 21.1193C-0.44934 26.6764 0.661179 32.3732 3.5907 37.1909C6.52022 42.0086 11.0777 45.6331 16.4482 47.4164C17.633 47.6363 18.0793 46.9019 18.0793 46.2776C18.0793 45.6532 18.0556 43.8429 18.0477 41.8637C11.4127 43.297 10.0107 39.0638 10.0107 39.0638C8.92854 36.3149 7.36457 35.5923 7.36457 35.5923C5.2003 34.1237 7.52651 34.1512 7.52651 34.1512C9.9238 34.32 11.1837 36.5976 11.1837 36.5976C13.3084 40.2222 16.7642 39.1737 18.1227 38.5611C18.336 37.0257 18.9561 35.9811 19.6393 35.3881C14.3392 34.7913 8.77056 32.7571 8.77056 23.6702C8.73771 21.3135 9.61722 19.0345 11.2271 17.3046C10.9822 16.7077 10.1647 14.2965 11.4601 11.0215C11.4601 11.0215 13.4625 10.3853 18.0201 13.4523C21.9293 12.3893 26.0538 12.3893 29.9631 13.4523C34.5167 10.3853 36.5151 11.0215 36.5151 11.0215C37.8145 14.2887 36.997 16.6998 36.7521 17.3046C38.3671 19.0348 39.2484 21.3178 39.2126 23.678C39.2126 32.7846 33.6321 34.7913 28.3241 35.3764C29.1771 36.1146 29.9394 37.5558 29.9394 39.7706C29.9394 42.9436 29.9117 45.4961 29.9117 46.2776C29.9117 46.9098 30.3422 47.6481 31.5507 47.4164C36.9219 45.6329 41.4798 42.0077 44.4093 37.1892C47.3387 32.3707 48.4487 26.6731 47.5406 21.1154C46.6325 15.5578 43.7657 10.5026 39.4528 6.85396C35.1398 3.20534 29.6622 1.20127 23.9995 1.2002H23.9916Z" fill="#070707"/>
<path d="M9.17286 35.251C9.12152 35.3688 8.93195 35.4041 8.77792 35.3217C8.62389 35.2392 8.50937 35.0861 8.56466 34.9643C8.61995 34.8426 8.80558 34.8112 8.9596 34.8936C9.11363 34.9761 9.2321 35.1332 9.17286 35.251Z" fill="#070707"/>
<path d="M10.1405 36.3225C10.0587 36.3635 9.96517 36.3749 9.87583 36.3549C9.7865 36.3348 9.70696 36.2845 9.65081 36.2126C9.49678 36.0476 9.46517 35.8199 9.58365 35.7178C9.70213 35.6157 9.91542 35.6628 10.0694 35.8277C10.2235 35.9927 10.259 36.2204 10.1405 36.3225Z" fill="#070707"/>
<path d="M11.0804 37.6851C10.9343 37.7872 10.6855 37.6851 10.5472 37.4809C10.509 37.4442 10.4786 37.4003 10.4578 37.3517C10.4371 37.3032 10.4264 37.2509 10.4264 37.1981C10.4264 37.1453 10.4371 37.0931 10.4578 37.0445C10.4786 36.9959 10.509 36.952 10.5472 36.9154C10.6934 36.8172 10.9422 36.9154 11.0804 37.1157C11.2186 37.3159 11.2226 37.583 11.0804 37.6851Z" fill="#070707"/>
<path d="M12.3561 39.0044C12.2258 39.1497 11.9612 39.1104 11.744 38.9141C11.5268 38.7177 11.4754 38.4507 11.6057 38.3093C11.7361 38.1679 12.0007 38.2072 12.2258 38.3996C12.4509 38.5921 12.4944 38.863 12.3561 39.0044Z" fill="#070707"/>
<path d="M14.1451 39.7744C14.0859 39.959 13.8173 40.0415 13.5488 39.9629C13.2802 39.8844 13.1025 39.6645 13.1538 39.476C13.2052 39.2875 13.4777 39.2011 13.7502 39.2875C14.0227 39.3739 14.1965 39.582 14.1451 39.7744Z" fill="#070707"/>
<path d="M16.0963 39.9081C16.0963 40.1006 15.8752 40.2655 15.5908 40.2694C15.3065 40.2734 15.0734 40.1163 15.0734 39.9239C15.0734 39.7314 15.2946 39.5665 15.579 39.5626C15.8633 39.5586 16.0963 39.7118 16.0963 39.9081Z" fill="#070707"/>
<path d="M17.9128 39.6061C17.9484 39.7985 17.7509 39.9988 17.4666 40.0459C17.1822 40.093 16.9334 39.9791 16.8978 39.7906C16.8623 39.6021 17.0677 39.3979 17.3441 39.3469C17.6206 39.2958 17.8773 39.4136 17.9128 39.6061Z" fill="#070707"/>
</svg>
