<svg width="17" height="16" viewBox="0 0 17 16" fill="none" xmlns="http://www.w3.org/2000/svg">
<path fill-rule="evenodd" clip-rule="evenodd" d="M1.83337 6H15.1667V6.66667V7.33333V8H14.5V8.66667H13.8334V9.33333H13.1667V10H11.1667V9.33333H10.5V8.66667H9.83337V8H9.16671V7.33333H7.83337V8H7.16671V8.66667H6.50004V9.33333H5.83337V10H3.83337V9.33333H3.16671V8.66667H2.50004V8H1.83337V7.33333V6.66667V6ZM2.50004 6.66667H3.16671V7.33333H2.50004V6.66667ZM3.83337 7.33333H3.16671V8H3.83337V8.66667H4.50004V9.33333H5.16671V8.66667H5.83337V8H5.16671V7.33333H4.50004V6.66667H3.83337V7.33333ZM4.50004 8H5.16671V8.66667H4.50004V8ZM4.50004 8V7.33333H3.83337V8H4.50004ZM10.5 6.66667H9.83337V7.33333H10.5V8H11.1667V8.66667H11.8334V9.33333H12.5V8.66667H13.1667V8H12.5V7.33333H11.8334V6.66667H11.1667V7.33333H10.5V6.66667ZM11.8334 8H11.1667V7.33333H11.8334V8ZM11.8334 8H12.5V8.66667H11.8334V8Z" fill="#FDFDFD"/>
</svg>
