<svg width="24" height="24" viewBox="0 0 24 24" fill="none" xmlns="http://www.w3.org/2000/svg">
<rect x="2" y="10" width="20" height="1" fill="#070707"/>
<rect x="2" y="9" width="20" height="1" fill="#070707"/>
<rect x="2" y="11" width="9" height="1" fill="#070707"/>
<rect x="3" y="12" width="7" height="1" fill="#070707"/>
<rect x="4" y="13" width="5" height="1" fill="#070707"/>
<rect x="5" y="14" width="3" height="1" fill="#070707"/>
<rect x="16" y="14" width="3" height="1" fill="#070707"/>
<rect x="15" y="13" width="5" height="1" fill="#070707"/>
<rect x="14" y="12" width="7" height="1" fill="#070707"/>
<rect x="13" y="11" width="9" height="1" fill="#070707"/>
<rect x="4" y="11" width="1" height="1" fill="#FDFDFD"/>
<rect x="3" y="10" width="1" height="1" fill="#FDFDFD"/>
<rect x="14" y="10" width="1" height="1" fill="#FDFDFD"/>
<rect x="5" y="10" width="1" height="1" fill="#FDFDFD"/>
<rect x="16" y="10" width="1" height="1" fill="#FDFDFD"/>
<rect x="15" y="11" width="1" height="1" fill="#FDFDFD"/>
<rect x="5" y="12" width="1" height="1" fill="#FDFDFD"/>
<rect x="6" y="13" width="1" height="1" fill="#FDFDFD"/>
<rect x="17" y="13" width="1" height="1" fill="#FDFDFD"/>
<rect x="16" y="12" width="1" height="1" fill="#FDFDFD"/>
<rect x="6" y="11" width="1" height="1" fill="#FDFDFD"/>
<rect x="17" y="11" width="1" height="1" fill="#FDFDFD"/>
<rect x="7" y="12" width="1" height="1" fill="#FDFDFD"/>
<rect x="18" y="12" width="1" height="1" fill="#FDFDFD"/>
</svg>
