<svg width="28" height="28" viewBox="0 0 28 28" fill="none" xmlns="http://www.w3.org/2000/svg">
<path fill-rule="evenodd" clip-rule="evenodd" d="M6.49996 9.00008H21.5L21.5 9.83342H20.6666H19.8333V10.6667H20.6666H21.5V15.6667H20.6666V14.8334H19.8333V14.0001H19H18.1666H17.3333V14.8334H16.5V15.6667H15.6666V16.5001H14.8333V15.6667H14V14.8334H13.1666V14.0001H12.3333V13.1667H11.5H10.6666H9.83329V14.0001H8.99996V14.8334H8.16663V15.6667H7.33329V16.5001H6.49996V9.00008ZM16.5 18.1667V19.0001H6.49996V17.3334H7.33329V16.5001H8.16663V15.6667H8.99996V14.8334H9.83329V14.0001H10.6666H11.5H12.3333V14.8334H13.1666V15.6667H14L14 16.5001H14.8333V17.3334H15.6666V18.1667H16.5ZM16.5 18.1667V17.3334L15.6666 17.3334V16.5001H16.5V15.6667H17.3333V14.8334H18.1666H19H19.8333V15.6667H20.6666V16.5001H21.5L21.5 19.0001H17.3333V18.1667H16.5ZM5.66663 9.00008C5.66663 8.53984 6.03972 8.16675 6.49996 8.16675H21.5C21.9602 8.16675 22.3333 8.53984 22.3333 9.00008V19.0001C22.3333 19.4603 21.9602 19.8334 21.5 19.8334H6.49996C6.03972 19.8334 5.66663 19.4603 5.66663 19.0001V9.00008ZM8.99996 10.6667H9.83329V11.5001H8.99996H8.16663V10.6667H8.99996ZM15.6666 12.3334H14.8333V13.1667H15.6666H16.5V12.3334H17.3333V11.5001H16.5V12.3334H15.6666Z" fill="#070707"/>
</svg>
