<svg width="16" height="16" viewBox="0 0 16 16" fill="none" xmlns="http://www.w3.org/2000/svg">
<path fill-rule="evenodd" clip-rule="evenodd" d="M2.00001 1.99967H14V13.9997H2.00001V1.99967ZM1.33334 1.99967C1.33334 1.63148 1.63182 1.33301 2.00001 1.33301H14C14.3682 1.33301 14.6667 1.63148 14.6667 1.99967V13.9997C14.6667 14.3679 14.3682 14.6663 14 14.6663H2.00001C1.63182 14.6663 1.33334 14.3679 1.33334 13.9997V1.99967ZM10 3.33301H6.00001V4.66634H4.66668V5.99967H6.00001V4.66634H10V5.99967H8.66668V7.33301H7.33334V9.99967H8.66668V7.33301H10V5.99967H11.3333V4.66634H10V3.33301ZM7.33334 11.333H8.66668V12.6663H7.33334V11.333Z" fill="#464748"/>
</svg>
