<svg width="28" height="28" viewBox="0 0 28 28" fill="none" xmlns="http://www.w3.org/2000/svg">
<path fill-rule="evenodd" clip-rule="evenodd" d="M6.49996 6.49984H21.5V21.4998H6.49996V6.49984ZM5.66663 6.49984C5.66663 6.0396 6.03972 5.6665 6.49996 5.6665H21.5C21.9602 5.6665 22.3333 6.0396 22.3333 6.49984V21.4998C22.3333 21.9601 21.9602 22.3332 21.5 22.3332H6.49996C6.03972 22.3332 5.66663 21.9601 5.66663 21.4998V6.49984ZM16.5 8.1665H11.5V9.83317H9.83329V11.4998H11.5V9.83317H16.5V11.4998H14.8333V13.1665H13.1666V16.4998H14.8333V13.1665H16.5V11.4998H18.1666V9.83317H16.5V8.1665ZM13.1666 18.1665H14.8333V19.8332H13.1666V18.1665Z" fill="#070707"/>
</svg>
