<svg width="28" height="28" viewBox="0 0 28 28" fill="none" xmlns="http://www.w3.org/2000/svg">
<path fill-rule="evenodd" clip-rule="evenodd" d="M13.1667 6.08341C13.1667 5.8533 13.3533 5.66675 13.5834 5.66675H15.6667H16.5H17.75C17.9802 5.66675 18.1667 5.8533 18.1667 6.08341C18.1667 6.31353 17.9802 6.50008 17.75 6.50008H16.2917L12.5417 21.5001H14.4167C14.6468 21.5001 14.8334 21.6866 14.8334 21.9167C14.8334 22.1469 14.6468 22.3334 14.4167 22.3334H12.3334H11.5H10.25C10.0199 22.3334 9.83337 22.1469 9.83337 21.9167C9.83337 21.6866 10.0199 21.5001 10.25 21.5001H11.7084L15.4584 6.50008H13.5834C13.3533 6.50008 13.1667 6.31353 13.1667 6.08341Z" fill="#070707"/>
</svg>
