<svg width="24" height="24" viewBox="0 0 24 24" fill="none" xmlns="http://www.w3.org/2000/svg">
<path d="M5.47817 12.6635L11.2189 3.47832C11.4851 3.05233 12.1429 3.24097 12.1429 3.74332V10.5714H18.1839C18.6135 10.5714 18.843 11.0773 18.5602 11.4006L10.4445 20.6756C10.1129 21.0546 9.49226 20.7609 9.57505 20.2642L10.7143 13.4285H5.90217C5.50945 13.4285 5.27003 12.9965 5.47817 12.6635Z" fill="#070707"/>
<path fill-rule="evenodd" clip-rule="evenodd" d="M10.7947 3.21335C11.3272 2.36138 12.6427 2.73866 12.6427 3.74335V10.0714H18.1837C19.0429 10.0714 19.502 11.0833 18.9363 11.7299L10.8206 21.0049C10.1574 21.7629 8.91609 21.1755 9.08168 20.182L10.1239 13.9285H5.90199C5.11655 13.9285 4.63771 13.0646 5.05399 12.3985L10.7947 3.21335ZM11.6427 3.74335L5.90199 12.9285H10.7142C10.8611 12.9285 11.0007 12.9932 11.0957 13.1053C11.1907 13.2175 11.2315 13.3658 11.2073 13.5107L10.0681 20.3464L18.1837 11.0714H12.1427C11.8666 11.0714 11.6427 10.8475 11.6427 10.5714V3.74335Z" fill="#070707"/>
</svg>
