<svg width="28" height="28" viewBox="0 0 28 28" fill="none" xmlns="http://www.w3.org/2000/svg">
<path d="M17.5417 7.86583C16.1467 7.06042 14.3628 7.53839 13.5574 8.93341L12.7241 10.3768C12.609 10.5761 12.3542 10.6444 12.1549 10.5293C11.9556 10.4142 11.8874 10.1594 12.0024 9.96012L12.8357 8.51674C13.8713 6.72314 16.1647 6.10861 17.9583 7.14414C19.7519 8.17968 20.3665 10.4731 19.3309 12.2667L18.4976 13.7101C18.3825 13.9094 18.1277 13.9777 17.9284 13.8626C17.7291 13.7476 17.6609 13.4927 17.7759 13.2934L18.6092 11.8501C19.4147 10.4551 18.9367 8.67125 17.5417 7.86583Z" fill="#070707"/>
<path d="M10.4583 20.1346C9.06332 19.3292 8.58535 17.5454 9.39076 16.1504L10.2241 14.707C10.3392 14.5077 10.2709 14.2529 10.0716 14.1378C9.8723 14.0228 9.61747 14.091 9.50241 14.2903L8.66908 15.7337C7.63354 17.5273 8.24807 19.8208 10.0417 20.8563C11.8353 21.8918 14.1287 21.2773 15.1643 19.4837L15.9976 18.0403C16.1127 17.841 16.0444 17.5862 15.8451 17.4712C15.6458 17.3561 15.391 17.4244 15.2759 17.6237L14.4426 19.067C13.6372 20.4621 11.8534 20.94 10.4583 20.1346Z" fill="#070707"/>
<path d="M16.5 9.66998C16.3007 9.55492 16.0459 9.6232 15.9308 9.82249L11.3475 17.7611C11.2324 17.9603 11.3007 18.2152 11.5 18.3302C11.6993 18.4453 11.9541 18.377 12.0692 18.1777L16.6525 10.2392C16.7676 10.0399 16.6993 9.78504 16.5 9.66998Z" fill="#070707"/>
</svg>
