<svg width="24" height="24" viewBox="0 0 24 24" fill="none" xmlns="http://www.w3.org/2000/svg">
<path fill-rule="evenodd" clip-rule="evenodd" d="M2.5 4C2.22386 4 2 4.22386 2 4.5C2 4.77614 2.22386 5 2.5 5H21.5C21.7761 5 22 4.77614 22 4.5C22 4.22386 21.7761 4 21.5 4H2.5ZM2.5 9C2.22386 9 2 9.22386 2 9.5C2 9.77614 2.22386 10 2.5 10H21.5C21.7761 10 22 9.77614 22 9.5C22 9.22386 21.7761 9 21.5 9H2.5ZM2 14.5C2 14.2239 2.22386 14 2.5 14H17.5C17.7761 14 18 14.2239 18 14.5C18 14.7761 17.7761 15 17.5 15H2.5C2.22386 15 2 14.7761 2 14.5ZM2.5 19C2.22386 19 2 19.2239 2 19.5C2 19.7761 2.22386 20 2.5 20H13.5C13.7761 20 14 19.7761 14 19.5C14 19.2239 13.7761 19 13.5 19H2.5Z" fill="#070707"/>
</svg>
