<svg width="24" height="24" viewBox="0 0 24 24" fill="none" xmlns="http://www.w3.org/2000/svg">
<path fill-rule="evenodd" clip-rule="evenodd" d="M14.5609 4.1172L13.6787 2.75398C12.8906 1.53611 11.1087 1.53611 10.3206 2.75398L9.43837 4.1172L7.92339 3.53287C6.56993 3.01084 5.12834 4.05821 5.20658 5.50675L5.29415 7.12814L3.72505 7.5459C2.32324 7.91911 1.7726 9.6138 2.68732 10.7397L3.7112 12L2.68732 13.2602C1.7726 14.3861 2.32323 16.0808 3.72505 16.454L5.29415 16.8718L5.20658 18.4932C5.12834 19.9417 6.56993 20.9891 7.92339 20.4671L9.43837 19.8827L10.3206 21.2459C11.1087 22.4638 12.8906 22.4638 13.6787 21.2459L14.5609 19.8827L16.0759 20.4671C17.4293 20.9891 18.8709 19.9417 18.7927 18.4932L18.7051 16.8718L20.2742 16.454C21.676 16.0808 22.2267 14.3861 21.3119 13.2602L20.2881 12L21.3119 10.7397C22.2267 9.6138 21.676 7.91911 20.2742 7.5459L18.7051 7.12814L18.7927 5.50675C18.8709 4.05821 17.4293 3.01084 16.0759 3.53287L14.5609 4.1172ZM9 7.99997H7V9.99997H9V7.99997ZM14 12H10V14H14V12ZM15 7.99997H17V9.99997H15V7.99997Z" fill="#464748"/>
</svg>
