<svg width="24" height="24" viewBox="0 0 24 24" fill="none" xmlns="http://www.w3.org/2000/svg">
<path d="M13.2593 3.02567C12.6682 2.11226 11.3318 2.11226 10.7407 3.02567L9.85851 4.38888C9.72992 4.58758 9.47963 4.66891 9.2588 4.58374L7.74382 3.99941C6.72873 3.60789 5.64754 4.39342 5.70622 5.47982L5.79379 7.10122C5.80656 7.33755 5.65187 7.55046 5.42316 7.61135L3.85405 8.0291C2.80269 8.30901 2.38971 9.58003 3.07576 10.4245L4.09964 11.6847C4.24888 11.8684 4.24888 12.1316 4.09964 12.3153L3.07576 13.5755C2.38971 14.42 2.80269 15.691 3.85405 15.9709L5.42316 16.3886C5.65187 16.4495 5.80656 16.6624 5.79379 16.8988L5.70622 18.5202C5.64754 19.6066 6.72873 20.3921 7.74382 20.0006L9.2588 19.4163C9.47963 19.3311 9.72992 19.4124 9.85851 19.6111L10.7407 20.9743C11.3318 21.8877 12.6682 21.8877 13.2593 20.9743L14.1415 19.6111C14.2701 19.4124 14.5204 19.3311 14.7412 19.4163L16.2562 20.0006C17.2713 20.3921 18.3525 19.6066 18.2938 18.5202L18.2062 16.8988C18.1934 16.6624 18.3481 16.4495 18.5768 16.3886L20.1459 15.9709C21.1973 15.691 21.6103 14.42 20.9242 13.5755L19.9004 12.3153C19.7511 12.1316 19.7511 11.8684 19.9004 11.6847L20.9242 10.4245C21.6103 9.58003 21.1973 8.30901 20.1459 8.0291L18.5768 7.61135C18.3481 7.55046 18.1934 7.33755 18.2062 7.10122L18.2938 5.47982C18.3525 4.39342 17.2713 3.60789 16.2562 3.99941L14.7412 4.58374C14.5204 4.66891 14.2701 4.58758 14.1415 4.38888L13.2593 3.02567Z" stroke="#070707"/>
<rect x="8" y="8" width="2" height="2" fill="#070707"/>
<rect x="11" y="11" width="2" height="2" fill="#070707"/>
<rect x="14" y="8" width="2" height="2" fill="#070707"/>
</svg>
