<svg width="28" height="28" viewBox="0 0 28 28" fill="none" xmlns="http://www.w3.org/2000/svg">
<path fill-rule="evenodd" clip-rule="evenodd" d="M11.8333 9.24994C11.9714 9.06585 11.9341 8.80468 11.75 8.66661C11.5659 8.52854 11.3047 8.56585 11.1667 8.74994L8.66666 12.0833C8.57196 12.2095 8.55673 12.3785 8.62731 12.5196C8.69789 12.6608 8.84217 12.7499 8.99999 12.7499H11.6153L8.63822 17.9599C8.52405 18.1597 8.59347 18.4142 8.79327 18.5284C8.99306 18.6425 9.24759 18.5731 9.36176 18.3733L12.6951 12.54C12.7688 12.411 12.7683 12.2526 12.6937 12.1241C12.6192 11.9957 12.4819 11.9166 12.3333 11.9166H9.83332L11.8333 9.24994ZM18.5 9.24994C18.6381 9.06585 18.6008 8.80468 18.4167 8.66661C18.2326 8.52854 17.9714 8.56585 17.8333 8.74994L15.3333 12.0833C15.2386 12.2095 15.2234 12.3785 15.294 12.5196C15.3646 12.6608 15.5088 12.7499 15.6667 12.7499H18.282L15.3049 17.9599C15.1907 18.1597 15.2601 18.4142 15.4599 18.5284C15.6597 18.6425 15.9143 18.5731 16.0284 18.3733L19.3618 12.54C19.4354 12.411 19.4349 12.2526 19.3604 12.1241C19.2858 11.9957 19.1485 11.9166 19 11.9166H16.5L18.5 9.24994Z" fill="#070707"/>
</svg>
