<svg width="48" height="48" viewBox="0 0 48 48" fill="none" xmlns="http://www.w3.org/2000/svg">
<path d="M45.6 24.361C45.6 21.5902 43.4742 19.3413 40.8548 19.3413C39.5641 19.3413 38.4253 19.8634 37.5902 20.7469C34.3634 18.2972 29.884 16.691 24.949 16.4902L27.1128 5.76811L34.1357 7.33426C34.2116 9.22166 35.6921 10.7476 37.5142 10.7476C39.3743 10.7476 40.8928 9.14135 40.8928 7.17363C40.8928 5.20591 39.3743 3.59961 37.5142 3.59961C36.1856 3.59961 35.0467 4.40276 34.5153 5.60748L26.6573 3.84056C26.4295 3.8004 26.2018 3.84055 26.0119 3.96103C25.8221 4.0815 25.7083 4.28229 25.6323 4.52323L23.2408 16.4902C18.1919 16.6508 13.6745 18.2169 10.4098 20.7469C9.57469 19.9035 8.39788 19.3413 7.14516 19.3413C4.52583 19.3413 2.39999 21.5902 2.39999 24.361C2.39999 26.4091 3.53883 28.1358 5.20913 28.939C5.13321 29.4209 5.09525 29.9429 5.09525 30.465C5.09525 38.1752 13.5606 44.3996 24.038 44.3996C34.5153 44.3996 42.9807 38.1752 42.9807 30.465C42.9807 29.9429 42.9427 29.461 42.8668 28.9791C44.4232 28.176 45.6 26.4091 45.6 24.361ZM13.143 27.935C13.143 25.9673 14.6615 24.361 16.5216 24.361C18.3817 24.361 19.9002 25.9673 19.9002 27.935C19.9002 29.9028 18.3817 31.5091 16.5216 31.5091C14.6615 31.5091 13.143 29.9028 13.143 27.935ZM32.0098 37.3721C29.6942 39.8217 25.2907 39.9823 24 39.9823C22.7093 39.9823 18.2678 39.7815 15.9901 37.3721C15.6485 37.0106 15.6485 36.4083 15.9901 36.0469C16.3318 35.6854 16.9012 35.6854 17.2429 36.0469C18.6854 37.5728 21.7982 38.135 24.038 38.135C26.2777 38.135 29.3525 37.5728 30.833 36.0469C31.1747 35.6854 31.7441 35.6854 32.0858 36.0469C32.3515 36.4484 32.3515 37.0106 32.0098 37.3721ZM31.4025 31.5091C29.5423 31.5091 28.0239 29.9028 28.0239 27.935C28.0239 25.9673 29.5423 24.361 31.4025 24.361C33.2626 24.361 34.781 25.9673 34.781 27.935C34.781 29.9028 33.2626 31.5091 31.4025 31.5091Z" fill="#070707"/>
</svg>
