<svg width="690" height="300" viewBox="0 0 690 300" fill="none" xmlns="http://www.w3.org/2000/svg">
<rect x="9" y="10" width="215.721" height="281" rx="6" stroke="#2A2B2C" stroke-width="4"/>
<path d="M105.274 245.338C145.743 245.338 178.549 241.681 178.549 237.169C178.549 232.657 145.743 229 105.274 229C64.8061 229 32 232.657 32 237.169C32 241.681 64.8061 245.338 105.274 245.338Z" fill="#070707"/>
<path d="M108.409 182.367C108.409 182.367 116.066 196.829 113.196 210.219C110.326 223.61 105.059 232.716 106.973 235.928C108.886 239.141 131.513 242.536 143 242C155.494 242 174.933 237.536 176.37 234.86C177.807 232.18 170.627 218.79 170.627 210.222C170.627 201.655 173.977 183.978 173.977 183.978L108.786 182.37H108.409V182.367Z" fill="#F0F0F0" stroke="#070707" stroke-width="3" stroke-miterlimit="10"/>
<path d="M113.5 189.487C113.5 189.487 115.5 201.323 115.5 203.5C115.5 205.677 129.502 196.118 141.17 196.118C152.837 196.118 169.027 205.198 169.184 204.528C169.342 203.859 171.749 189.605 171.456 189.487C171.161 189.371 113.5 189.487 113.5 189.487Z" fill="#2A2B2C"/>
<path d="M143.588 191.737C170.946 191.737 193.123 187.543 193.123 182.369C193.123 177.194 170.946 173 143.588 173C116.23 173 94.0522 177.194 94.0522 182.369C94.0522 187.543 116.23 191.737 143.588 191.737Z" fill="#F0F0F0" stroke="#070707" stroke-width="3" stroke-miterlimit="10"/>
<path d="M144.478 183.369C160.207 183.369 172.957 181.271 172.957 178.684C172.957 176.097 160.207 174 144.478 174C128.75 174 116 176.097 116 178.684C116 181.271 128.75 183.369 144.478 183.369Z" fill="#2A2B2C"/>
<path d="M109.816 222.314C109.816 222.314 127.308 229.9 140.709 229.9C154.109 229.9 170.5 223 172.673 222.314" stroke="#070707" stroke-width="3" stroke-miterlimit="10"/>
<path fill-rule="evenodd" clip-rule="evenodd" d="M152.625 106.584H102.375C100.833 106.584 99.5834 107.834 99.5834 109.376V145.667C99.5834 147.209 100.833 148.459 102.375 148.459H127.5L142.68 160.603C143.594 161.334 144.948 160.684 144.948 159.513V148.459H152.625C154.167 148.459 155.417 147.209 155.417 145.667V109.376C155.417 107.834 154.167 106.584 152.625 106.584ZM141.458 131.709C139.917 131.709 138.667 130.459 138.667 128.917C138.667 127.376 139.917 126.126 141.458 126.126C143 126.126 144.25 127.376 144.25 128.917C144.25 130.459 143 131.709 141.458 131.709ZM127.5 131.709C125.958 131.709 124.708 130.459 124.708 128.917C124.708 127.376 125.958 126.126 127.5 126.126C129.042 126.126 130.292 127.376 130.292 128.917C130.292 130.459 129.042 131.709 127.5 131.709ZM110.75 128.917C110.75 130.459 112 131.709 113.542 131.709C115.084 131.709 116.333 130.459 116.333 128.917C116.333 127.376 115.084 126.126 113.542 126.126C112 126.126 110.75 127.376 110.75 128.917Z" fill="#070707"/>
<rect x="464.279" y="10" width="215.721" height="281" rx="6" stroke="#2A2B2C" stroke-width="4"/>
<path d="M625.467 241.85H516.022C511.039 241.85 507 237.81 507 232.827V127.745C507 92.5408 535.541 64 570.745 64C605.949 64 634.49 92.5408 634.49 127.745V232.827C634.49 237.81 630.45 241.85 625.467 241.85Z" fill="#F0F2F2" stroke="#070707" stroke-width="3" stroke-miterlimit="10"/>
<path d="M570.745 64C567.132 64 563.591 64.3048 560.143 64.8826C590.3 69.9319 613.286 96.1534 613.286 127.745V232.827C613.286 237.81 609.246 241.85 604.263 241.85H625.467C630.45 241.85 634.49 237.81 634.49 232.827V127.745C634.49 92.5381 605.949 64 570.745 64Z" fill="#070707"/>
<path d="M507.111 168.736H541.417V191.624M541.417 191.624H570.869V214.189M541.417 191.624H507.111M570.869 214.189H599.349V240.3M570.869 214.189H507.111" stroke="#070707" stroke-width="3" stroke-linecap="round" stroke-linejoin="round"/>
<path fill-rule="evenodd" clip-rule="evenodd" d="M598.132 189.035L591.274 184.963C591.043 184.826 590.77 184.789 590.516 184.859L586.467 185.975L599.683 193.823L598.598 189.659C598.53 189.397 598.362 189.172 598.132 189.035ZM584.737 186.754C584.747 186.735 584.758 186.717 584.77 186.699L599.922 195.697C599.913 195.716 599.903 195.735 599.892 195.754L596.89 201.102L604.716 205.749C606.111 206.578 606.589 208.412 605.783 209.847C604.978 211.282 603.194 211.774 601.799 210.945L593.974 206.298L591.786 210.195L576.631 201.195L584.737 186.754ZM576.397 202.789L590.561 211.2L585.848 212.499H600.958C601.373 212.499 601.708 212.835 601.708 213.249C601.708 213.663 601.373 213.999 600.958 213.999H577.667C577.253 213.999 576.917 213.663 576.917 213.249C576.917 212.835 577.253 212.499 577.667 212.499H585.179C585.12 212.478 585.062 212.451 585.007 212.418L578.149 208.345C577.918 208.209 577.75 207.984 577.682 207.722L576.397 202.789ZM585.847 195.923C585.625 195.577 585.173 195.482 584.837 195.71C584.501 195.939 584.409 196.404 584.63 196.749L587.171 200.708C587.311 200.925 587.549 201.052 587.802 201.044C588.054 201.036 588.285 200.895 588.411 200.67L589.594 198.563L590.648 202.61C590.752 203.01 591.152 203.248 591.541 203.14C591.93 203.033 592.161 202.622 592.056 202.222L590.547 196.426C590.47 196.133 590.23 195.916 589.937 195.877C589.645 195.837 589.358 195.983 589.211 196.245L587.738 198.869L585.847 195.923ZM596.409 202.548L594.951 205.146L602.528 209.646C603.226 210.06 604.118 209.815 604.52 209.097C604.923 208.38 604.684 207.462 603.987 207.048L596.409 202.548Z" fill="#070707"/>
<rect x="236.639" y="10" width="215.721" height="281" rx="6" stroke="#2A2B2C" stroke-width="4"/>
<path d="M317.876 189.636C317.995 189.334 318.108 189.028 318.215 188.717C321.899 178.001 316.692 166.36 306.585 162.717C296.478 159.074 285.297 164.809 281.613 175.525C281.514 175.813 281.422 176.101 281.336 176.39L281.32 176.384L270.103 209.011C268.096 214.849 266.097 223.392 271.59 225.372C277.083 227.352 281.412 220.163 282.278 217.645C281.569 219.705 282.419 224.41 286.502 225.882C290.586 227.354 293.904 223.958 294.553 222.069C293.727 224.473 292.972 230.763 297.6 232.431C301.599 233.872 305.147 226.66 306.564 222.538L317.876 189.636Z" fill="#F0F2F2"/>
<path d="M282.278 217.645C281.412 220.163 277.083 227.352 271.59 225.372C266.097 223.392 268.096 214.849 270.103 209.011L281.32 176.384L281.336 176.39C281.422 176.101 281.514 175.813 281.613 175.525C285.297 164.809 296.478 159.074 306.585 162.717C316.692 166.36 321.899 178.001 318.215 188.717C318.108 189.028 317.995 189.334 317.876 189.636L306.564 222.538C305.147 226.66 301.599 233.872 297.6 232.431C292.972 230.763 293.727 224.473 294.553 222.069M282.278 217.645C281.569 219.705 282.419 224.41 286.502 225.882C290.586 227.354 293.904 223.958 294.553 222.069M282.278 217.645L288.063 200.816M294.553 222.069L299.158 208.675" stroke="#070707" stroke-width="3"/>
<path fill-rule="evenodd" clip-rule="evenodd" d="M295.981 182.445C295.459 183.963 293.876 184.775 292.445 184.259C291.014 183.743 290.277 182.095 290.798 180.578C291.32 179.06 292.903 178.248 294.334 178.764C295.765 179.28 296.503 180.928 295.981 182.445ZM308.613 186.999C308.092 188.517 306.509 189.328 305.077 188.813C303.646 188.297 302.909 186.649 303.431 185.131C303.952 183.614 305.536 182.802 306.967 183.318C308.398 183.834 309.135 185.482 308.613 186.999ZM292.101 188.946C292.183 188.148 293.022 187.752 293.774 188.023C294.526 188.294 294.886 189.15 294.997 189.946C295.035 190.225 295.113 190.498 295.228 190.756C295.54 191.454 296.106 191.987 296.802 192.238C297.497 192.488 298.264 192.436 298.935 192.092C299.183 191.965 299.41 191.802 299.61 191.609C300.184 191.06 300.988 190.623 301.74 190.894C302.492 191.165 302.904 192.012 302.479 192.686C301.906 193.598 301.106 194.342 300.159 194.828C298.791 195.529 297.226 195.636 295.809 195.126C294.391 194.615 293.237 193.528 292.6 192.104C292.159 191.117 291.991 190.024 292.101 188.946Z" fill="#070707"/>
<path d="M377.826 80.6599C377.536 80.1676 377.234 79.6798 376.919 79.1969C366.032 62.5196 344.002 58.0364 327.714 69.1835C311.426 80.3307 307.047 102.887 317.934 119.564C318.227 120.012 318.527 120.451 318.835 120.881L318.809 120.898L351.954 171.672C357.885 180.758 367.604 192.665 376.456 186.606C385.309 180.548 380.064 166.611 377.505 162.692C379.598 165.898 387.112 169.567 393.692 165.064C400.273 160.561 399.206 152.093 397.287 149.153C399.729 152.894 407.679 160.599 415.136 155.495C421.581 151.085 415.438 138.277 411.252 131.864L377.826 80.6599Z" fill="#F0F2F2"/>
<path d="M377.505 162.692C380.064 166.611 385.309 180.548 376.456 186.606C367.604 192.665 357.885 180.758 351.954 171.672L318.809 120.898L318.835 120.881C318.527 120.451 318.227 120.012 317.934 119.564C307.047 102.887 311.426 80.3307 327.714 69.1835C344.002 58.0364 366.032 62.5196 376.919 79.1969C377.234 79.6798 377.536 80.1676 377.826 80.6599L411.252 131.864C415.438 138.277 421.581 151.085 415.136 155.495C407.679 160.599 399.729 152.894 397.287 149.153M377.505 162.692C379.598 165.898 387.112 169.567 393.692 165.064C400.273 160.561 399.206 152.093 397.287 149.153M377.505 162.692L360.409 136.503M397.287 149.153L383.68 128.309" stroke="#070707" stroke-width="3"/>
<path fill-rule="evenodd" clip-rule="evenodd" d="M363.873 91.6046C365.414 93.966 364.794 97.1598 362.488 98.7382C360.182 100.317 357.063 99.6817 355.521 97.3204C353.98 94.959 354.6 91.7652 356.906 90.1868C359.212 88.6085 362.331 89.2432 363.873 91.6046ZM343.516 105.537C345.057 107.898 344.437 111.092 342.131 112.67C339.825 114.249 336.706 113.614 335.164 111.253C333.623 108.891 334.243 105.697 336.549 104.119C338.855 102.541 341.974 103.176 343.516 105.537ZM347.128 116.801C346.858 116.448 346.958 115.942 347.322 115.693L350.392 113.591C350.757 113.342 351.245 113.448 351.542 113.777C352.266 114.581 353.225 115.136 354.285 115.352C355.607 115.62 356.978 115.341 358.099 114.574C359.219 113.808 359.996 112.617 360.258 111.264C360.469 110.178 360.335 109.059 359.887 108.067C359.703 107.659 359.794 107.157 360.159 106.908L363.229 104.806C363.593 104.557 364.088 104.656 364.303 105.047C365.512 107.246 365.92 109.825 365.436 112.317C364.901 115.077 363.316 117.505 361.032 119.068C358.748 120.631 355.951 121.202 353.256 120.653C350.821 120.158 348.651 118.786 347.128 116.801Z" fill="#070707"/>
<path d="M395.985 169.75C396.922 175.465 397.585 181.422 399.261 186.986C399.737 188.566 400.61 189.667 401.735 190.803C403.141 192.223 405.098 193.459 407.129 193.588C410.775 193.819 411.304 188.591 411.108 185.983C410.778 181.595 405.595 180.219 404.2 184.808C403.37 187.538 404.163 190.695 405.615 193.011C406.544 194.492 407.071 196.111 407.822 197.679C408.918 199.968 410.776 201.791 412.474 203.614C415.811 207.195 420.047 211.243 424.529 213.234C427.937 214.748 431.233 216.685 435 216.96" stroke="#070707" stroke-width="2" stroke-linecap="round"/>
<path d="M321.365 163.799C324.117 167.045 328.644 170.613 328.253 175.661C328.212 176.191 327.937 178.596 327.282 178.434" stroke="#070707" stroke-width="2" stroke-linecap="round"/>
<path d="M325.288 162.09C328.114 164.925 331.257 169.505 331.736 173.917C331.792 174.438 332.105 176.208 331.41 176.097" stroke="#070707" stroke-width="2" stroke-linecap="round"/>
<path d="M257.931 218.305C258.389 222.136 257.989 227.837 260.923 230.364C261.093 230.511 261.808 230.909 261.736 230.909" stroke="#070707" stroke-width="2" stroke-linecap="round"/>
<path d="M255.328 219.205C255.043 222.893 254.183 228.02 257.286 230.699C257.802 231.144 259.791 232.608 259.326 233.009" stroke="#070707" stroke-width="2" stroke-linecap="round"/>
<path d="M270.331 125.908L281.106 103.852C281.606 102.829 283.133 103.1 283.251 104.232L284.86 119.622L298.476 118.198C299.444 118.097 300.081 119.183 299.519 119.979L283.413 142.796C282.755 143.728 281.287 143.213 281.356 142.074L282.313 126.398L271.467 127.532C270.582 127.625 269.941 126.707 270.331 125.908Z" fill="#070707"/>
<path fill-rule="evenodd" clip-rule="evenodd" d="M280.088 103.354C281.087 101.308 284.141 101.849 284.378 104.113L285.869 118.376L298.358 117.07C300.294 116.868 301.568 119.041 300.445 120.631L284.338 143.449C283.022 145.314 280.086 144.282 280.225 142.004L281.101 127.663L271.585 128.658C269.814 128.843 268.532 127.009 269.313 125.409L280.088 103.354ZM282.124 104.349L271.349 126.404L282.195 125.27C282.527 125.236 282.856 125.349 283.097 125.579C283.337 125.809 283.464 126.134 283.444 126.466L282.487 142.142L298.593 119.324L284.978 120.748C284.355 120.813 283.798 120.361 283.733 119.739L282.124 104.349Z" fill="#070707"/>
</svg>
