<svg width="24" height="24" viewBox="0 0 24 24" fill="none" xmlns="http://www.w3.org/2000/svg">
<path d="M4 21.5C4 21.7761 4.22386 22 4.5 22C4.77614 22 5 21.7761 5 21.5H4ZM21.8536 6.35355C22.0488 6.15829 22.0488 5.84171 21.8536 5.64645L18.6716 2.46447C18.4763 2.2692 18.1597 2.2692 17.9645 2.46447C17.7692 2.65973 17.7692 2.97631 17.9645 3.17157L20.7929 6L17.9645 8.82843C17.7692 9.02369 17.7692 9.34027 17.9645 9.53553C18.1597 9.7308 18.4763 9.7308 18.6716 9.53553L21.8536 6.35355ZM5 21.5V7H4V21.5H5ZM5.5 6.5H21.5V5.5H5.5V6.5ZM5 7C5 6.72386 5.22386 6.5 5.5 6.5V5.5C4.67157 5.5 4 6.17157 4 7H5Z" fill="black"/>
</svg>
