<svg width="25" height="24" viewBox="0 0 25 24" fill="none" xmlns="http://www.w3.org/2000/svg">
<path d="M14.683 16.2811L16.183 13.683L21.8122 16.933C22.5296 17.3472 22.7754 18.2646 22.3612 18.9821C21.947 19.6995 21.0296 19.9453 20.3122 19.5311L14.683 16.2811Z" stroke="#070707"/>
<rect x="3" y="21" width="17" height="1" rx="0.5" fill="#070707"/>
<path d="M17.4355 5.29289L12.9568 2.70711C12.7271 2.5745 12.4542 2.53856 12.198 2.60721L8.9001 3.49087C8.64392 3.55951 8.4255 3.72711 8.29289 3.9568L2.70711 13.6317C2.5745 13.8613 2.53856 14.1343 2.60721 14.3905L3.49087 17.6884C3.55951 17.9445 3.72711 18.163 3.9568 18.2956L8.43551 20.8814C8.66519 21.014 8.93815 21.0499 9.19433 20.9813L12.4922 20.0976C12.7484 20.0289 12.9668 19.8613 13.0994 19.6317L18.6852 9.9568C18.8178 9.72711 18.8537 9.45416 18.7851 9.19798L17.9014 5.9001C17.8328 5.64392 17.6652 5.4255 17.4355 5.29289Z" fill="#070707"/>
<path d="M8 3L20.1244 10" stroke="#FDFDFD"/>
<path d="M1 13L13.1244 20" stroke="#FDFDFD"/>
<path d="M8.70711 10.2247L10.4495 12.8637L11.8637 10.4142L12.899 14.2779" stroke="#FDFDFD" stroke-linecap="round" stroke-linejoin="round"/>
</svg>
