<svg width="24" height="24" viewBox="0 0 24 24" fill="none" xmlns="http://www.w3.org/2000/svg">
<path fill-rule="evenodd" clip-rule="evenodd" d="M10.737 2.21499L2.21163 10.8585L2.00131 14.4835C1.98446 14.7739 2.09092 15.0578 2.29385 15.2636L6.39208 19.4186C6.59501 19.6243 6.87503 19.7323 7.16152 19.7152L10.737 19.502L13.7155 16.4821L18.5694 21.4033C19.3541 22.1989 20.6264 22.1989 21.4112 21.4033C22.1959 20.6077 22.1959 19.3177 21.4112 18.5221L16.5573 13.601L19.2623 10.8585L19.4726 7.23348C19.4895 6.94302 19.383 6.65912 19.1801 6.45337L15.0819 2.29836C14.8789 2.09261 14.5989 1.98467 14.3124 2.00176L10.737 2.21499ZM18.3512 9.21448L18.4696 7.17366L14.3714 3.01865L12.3585 3.13869L18.3512 9.21448ZM11.0922 3.29543L3.2773 11.2186L10.3817 18.4215L18.1966 10.4983L11.0922 3.29543ZM9.11545 18.5783L3.1227 12.5025L3.0043 14.5433L7.10252 18.6983L9.11545 18.5783ZM15.9836 14.4599L14.5627 15.9005L19.2798 20.683C19.6722 21.0808 20.3084 21.0808 20.7007 20.683C21.0931 20.2852 21.0931 19.6402 20.7007 19.2424L15.9836 14.4599ZM9.59927 8.78366C9.51153 8.51681 9.22703 8.37259 8.96383 8.46154C8.70062 8.55049 8.55837 8.83893 8.64611 9.10579L9.65083 12.1617C9.70588 12.3292 9.84254 12.4558 10.012 12.4964C10.1814 12.5369 10.3595 12.4856 10.4826 12.3608L11.6345 11.193V14.0379C11.6345 14.3192 11.8594 14.5473 12.1368 14.5473C12.4143 14.5473 12.6392 14.3192 12.6392 14.0379V9.96337C12.6392 9.75737 12.5168 9.57165 12.3291 9.49282C12.1414 9.41398 11.9253 9.45756 11.7816 9.60322L10.3469 11.0578L9.59927 8.78366Z" fill="#2A2B2C"/>
</svg>
