<svg width="16" height="16" viewBox="0 0 16 16" fill="none" xmlns="http://www.w3.org/2000/svg">
<path fill-rule="evenodd" clip-rule="evenodd" d="M7.15794 1.47731L1.47438 7.23963L1.33417 9.6563C1.32293 9.84994 1.39391 10.0392 1.52919 10.1764L4.26134 12.9464C4.39663 13.0835 4.58331 13.1555 4.77431 13.1441L7.15794 13.002L9.14364 10.9887L12.3796 14.2695C12.9027 14.7999 13.7509 14.7999 14.2741 14.2695C14.7972 13.7391 14.7972 12.8791 14.2741 12.3487L11.0382 9.06797L12.8415 7.23963L12.9817 4.82297C12.9929 4.62933 12.922 4.44006 12.7867 4.3029L10.0545 1.53289C9.91925 1.39573 9.73256 1.32377 9.54157 1.33516L7.15794 1.47731ZM12.2341 6.14364L12.3131 4.78309L9.5809 2.01308L8.23895 2.09311L12.2341 6.14364ZM7.39475 2.1976L2.18482 7.47973L6.92112 12.2817L12.1311 6.99954L7.39475 2.1976ZM6.07693 12.3862L2.08176 8.33563L2.00282 9.69617L4.73497 12.4662L6.07693 12.3862ZM10.6557 9.64059L9.70843 10.601L12.8532 13.7893C13.1148 14.0545 13.5389 14.0545 13.8004 13.7893C14.062 13.5241 14.062 13.0941 13.8004 12.8289L10.6557 9.64059ZM6.39947 5.85643C6.34098 5.67852 6.15132 5.58238 5.97584 5.64168C5.80037 5.70098 5.70554 5.89327 5.76403 6.07118L6.43384 8.10846C6.47055 8.2201 6.56165 8.30452 6.67462 8.33155C6.78758 8.35859 6.9063 8.3244 6.98838 8.24119L7.75628 7.46264V9.35928C7.75628 9.54681 7.90623 9.69883 8.09119 9.69883C8.27616 9.69883 8.4261 9.54681 8.4261 9.35928L8.4261 6.6429C8.4261 6.50556 8.3445 6.38175 8.21936 6.3292C8.09421 6.27664 7.95016 6.30569 7.85438 6.4028L6.89792 7.37251L6.39947 5.85643Z" fill="#FDFDFD"/>
</svg>
