<svg width="28" height="28" viewBox="0 0 28 28" fill="none" xmlns="http://www.w3.org/2000/svg">
<path fill-rule="evenodd" clip-rule="evenodd" d="M16.1952 8.55962C16.7733 8.93902 17.103 9.472 17.1843 10.1585H18.8103C18.7878 9.45845 18.571 8.83288 18.1599 8.28184C17.7534 7.7308 17.2024 7.2972 16.5068 6.98103C15.8112 6.66034 15.0163 6.5 14.122 6.5C13.2367 6.5 12.435 6.6626 11.7168 6.98781C11.0032 7.30849 10.4341 7.76016 10.0095 8.34282C9.58947 8.92096 9.37944 9.59846 9.37944 10.3753C9.37944 11.3103 9.69561 12.0668 10.328 12.645C10.5336 12.833 10.763 13.0069 11.0164 13.1667H8.16671C7.70647 13.1667 7.33337 13.5398 7.33337 14C7.33337 14.4602 7.70647 14.8333 8.16671 14.8333H15.7086C15.7977 14.8685 15.8854 14.9046 15.9716 14.9417C16.3916 15.1224 16.7304 15.3573 16.9878 15.6463C17.2453 15.9354 17.374 16.3103 17.374 16.771C17.374 17.2769 17.225 17.7195 16.9269 18.0989C16.6288 18.4738 16.2245 18.7674 15.7141 18.9797C15.2037 19.1874 14.6279 19.2913 13.9865 19.2913C13.4355 19.2913 12.9205 19.21 12.4418 19.0474C11.9675 18.8803 11.5746 18.6274 11.2629 18.2886C10.9558 17.9453 10.7796 17.5117 10.7345 16.9878H9.00004C9.05424 17.7466 9.28685 18.4128 9.69787 18.9864C10.1134 19.5601 10.6825 20.0072 11.4052 20.3279C12.1324 20.6486 12.9928 20.8089 13.9865 20.8089C15.0524 20.8089 15.958 20.6305 16.7033 20.2737C17.4531 19.9169 18.0222 19.4359 18.4106 18.8306C18.8036 18.2254 19 17.5479 19 16.7981C19 16.1477 18.8668 15.5989 18.6003 15.1518C18.5341 15.0406 18.4633 14.9345 18.3882 14.8333H19.8334C20.2936 14.8333 20.6667 14.4602 20.6667 14C20.6667 13.5398 20.2936 13.1667 19.8334 13.1667H15.7319C15.5081 13.0925 15.2967 13.0292 15.0976 12.977L13.6884 12.5976C13.4309 12.5298 13.1486 12.4417 12.8415 12.3333C12.5344 12.2204 12.2408 12.0781 11.9607 11.9065C11.6807 11.7304 11.4504 11.5113 11.2697 11.2493C11.0935 10.9828 11.0055 10.6644 11.0055 10.294C11.0055 9.8514 11.1319 9.45619 11.3849 9.1084C11.6423 8.76061 11.9991 8.48735 12.4553 8.28862C12.916 8.08988 13.4535 7.99051 14.0678 7.99051C14.9079 7.99051 15.617 8.18022 16.1952 8.55962Z" fill="#070707"/>
</svg>
