<svg width="48" height="48" viewBox="0 0 48 48" fill="none" xmlns="http://www.w3.org/2000/svg">
<path d="M42.114 14.3613C42.1326 14.7837 42.1326 15.1869 42.1326 15.6093C42.1511 28.4158 32.7422 43.1998 15.5357 43.1998C10.4608 43.1998 5.47847 41.683 1.2 38.8414C1.94086 38.9374 2.68172 38.9758 3.42258 38.9758C7.62697 38.9758 11.7202 37.5166 15.0356 34.8094C11.0349 34.7326 7.51584 32.0254 6.29342 28.0702C7.70105 28.3582 9.14573 28.3006 10.5163 27.8974C6.16377 27.0142 3.03363 23.0397 3.01511 18.4125C3.01511 18.3741 3.01511 18.3357 3.01511 18.2973C4.31161 19.0461 5.77481 19.4685 7.25654 19.5069C3.16328 16.6653 1.88529 11.0013 4.36718 6.56609C9.12721 12.6333 16.1283 16.3005 23.6481 16.7037C22.8887 13.3437 23.9259 9.8109 26.3522 7.43009C30.1121 3.76288 36.039 3.95488 39.5951 7.85249C41.6881 7.43009 43.7069 6.62369 45.5405 5.49088C44.8367 7.73729 43.3735 9.6381 41.4288 10.8477C43.2809 10.6173 45.096 10.0989 46.8 9.3309C45.5405 11.2893 43.9477 12.9789 42.114 14.3613Z" fill="#070707"/>
</svg>
