<svg width="24" height="24" viewBox="0 0 24 24" fill="none" xmlns="http://www.w3.org/2000/svg">
<path fill-rule="evenodd" clip-rule="evenodd" d="M11.9999 22C17.5228 22 21.9999 17.5229 21.9999 12.0001C21.9999 6.47725 17.5228 2.00012 11.9999 2.00012C6.47713 2.00012 2 6.47725 2 12.0001C2 17.5229 6.47713 22 11.9999 22ZM11.4999 7.99984H8.49996V10.9998H11.4999V7.99984ZM17.4999 7.99984H14.4999V10.9998H17.4999V7.99984ZM11.4999 12.4998H8.49996V14.9998C8.49996 15.8331 9.49996 18.4998 12.9999 18.4998C16.5999 18.4998 17.4999 15.8331 17.4999 14.9998V12.4998H14.4999V14.9998C14.4999 15.3331 13.9999 15.9998 12.9999 15.9998C11.9999 15.9998 11.4999 15.3331 11.4999 14.9998V12.4998Z" fill="#070707"/>
</svg>
