<svg width="134" height="40" viewBox="0 0 134 40" fill="none" xmlns="http://www.w3.org/2000/svg">
<path fill-rule="evenodd" clip-rule="evenodd" d="M19.9999 40C31.0455 40 39.9998 31.0458 39.9998 20.0001C39.9998 8.9545 31.0455 0.000244141 19.9999 0.000244141C8.95425 0.000244141 0 8.9545 0 20.0001C0 31.0458 8.95425 40 19.9999 40ZM30.9999 11.9998H24.9999V17.9998H30.9999V11.9998ZM19.0001 11.9998H13.0001V17.9998H19.0001V11.9998ZM19 20.9997H13V25.9997C13 27.6663 15 32.9996 21.9999 32.9996C29.1999 32.9996 30.9999 27.6663 30.9999 25.9997V20.9997H24.9999V25.9997C24.9999 26.6663 23.9999 27.9997 21.9999 27.9997C20 27.9997 19 26.6663 19 25.9997V20.9997Z" fill="#070707"/>
<path d="M55.9908 26.0442H59.6683C59.6545 23.2653 57.5116 21.4265 54.0829 21.4265C50.7164 21.4265 48.3384 23.2376 48.3592 25.9336C48.3523 28.1456 49.8869 29.3761 52.3962 29.9153L53.8064 30.2194C55.3825 30.5651 55.9217 30.9591 55.9355 31.602C55.9217 32.3002 55.2857 32.791 54.0552 32.791C52.5828 32.791 51.7118 32.0997 51.6496 30.8001H47.9997C48.0136 34.3532 50.4192 35.9432 54.1105 35.9432C57.6982 35.9432 59.8481 34.3947 59.8619 31.602C59.8481 29.4452 58.5623 27.9313 55.4378 27.2608L54.2764 27.012C52.9354 26.7285 52.334 26.3345 52.3685 25.6571C52.3755 25.0349 52.8939 24.5787 54.0829 24.5787C55.3272 24.5787 55.9148 25.1248 55.9908 26.0442Z" fill="#070707"/>
<path d="M67.0786 35.9708C70.5349 35.9708 72.5811 33.7587 72.5811 30.496C72.5811 27.2332 70.5349 25.0211 67.0786 25.0211C63.6223 25.0211 61.5761 27.2332 61.5761 30.496C61.5761 33.7587 63.6223 35.9708 67.0786 35.9708ZM67.1063 33.1504C66.0832 33.1504 65.4749 32.1343 65.4749 30.4683C65.4749 28.8023 66.0832 27.7862 67.1063 27.7862C68.074 27.7862 68.6823 28.8023 68.6823 30.4683C68.6823 32.1343 68.074 33.1504 67.1063 33.1504Z" fill="#070707"/>
<path d="M79.8289 35.9708C82.9742 35.9708 84.9028 34.1666 84.9443 31.3531H81.405C81.3221 32.4661 80.7206 33.0675 79.8842 33.0675C78.8819 33.0675 78.2252 32.2103 78.2252 30.4683C78.2252 28.7263 78.8819 27.8691 79.8842 27.8691C80.7276 27.8691 81.3013 28.4705 81.405 29.5835H84.9443C84.9236 26.8184 82.9534 25.0211 79.8289 25.0211C76.3726 25.0211 74.3264 27.2332 74.3264 30.496C74.3264 33.7587 76.3726 35.9708 79.8289 35.9708Z" fill="#070707"/>
<path d="M87.1026 35.7772H90.9184V25.1594H87.1026V35.7772ZM89.0106 24.0533C90.0475 24.0533 90.8908 23.2722 90.8908 22.3113C90.8908 21.3505 90.0475 20.5693 89.0106 20.5693C87.9736 20.5693 87.1303 21.3505 87.1303 22.3113C87.1303 23.2722 87.9736 24.0533 89.0106 24.0533Z" fill="#070707"/>
<path d="M96.4053 35.9432C97.7878 35.9432 98.8316 35.4731 99.4745 34.2841H99.5574V35.7772H103.124V28.5051C103.124 26.5419 101.265 25.0211 98.2302 25.0211C95.0573 25.0211 93.495 26.6802 93.3637 28.6157H96.8753C96.9652 27.959 97.4491 27.6479 98.1749 27.6479C98.8385 27.6479 99.3086 27.9521 99.3086 28.5051V28.5328C99.3086 29.148 98.6311 29.3415 96.8477 29.4729C94.6563 29.6319 92.9489 30.5167 92.9489 32.8463C92.9489 34.9616 94.3729 35.9432 96.4053 35.9432ZM97.6495 33.5375C96.9997 33.5375 96.5435 33.2196 96.5435 32.6251C96.5435 32.079 96.9306 31.6573 97.8154 31.519C98.4238 31.4223 98.9353 31.2978 99.3362 31.1319V32.0167C99.3362 32.9845 98.5136 33.5375 97.6495 33.5375Z" fill="#070707"/>
<path d="M109.347 21.6201H105.532V35.7772H109.347V21.6201Z" fill="#070707"/>
<path d="M56.845 5.02168V13.7593C56.845 15.0796 55.898 16.0267 54.5776 16.0267C53.2573 16.0267 52.3103 15.0796 52.3103 13.7593V5.02168H48.4668V14.0911C48.4668 17.3263 50.9139 19.3448 54.5776 19.3448C58.2137 19.3448 60.6885 17.3263 60.6885 14.0911V5.02168H56.845Z" fill="#070707"/>
<path d="M66.3862 13.2063C66.3932 12.1556 66.9876 11.5196 67.9347 11.5196C68.8955 11.5196 69.4624 12.1556 69.4555 13.2063V19.1789H73.2713V12.4044C73.2782 10.0956 71.8196 8.42272 69.5661 8.42272C68.0038 8.42272 66.7664 9.23841 66.3033 10.5795H66.1927V8.56097H62.5704V19.1789H66.3862V13.2063Z" fill="#070707"/>
<path d="M75.155 19.1789H78.9708V8.56097H75.155V19.1789ZM77.0629 7.45494C78.0998 7.45494 78.9431 6.67381 78.9431 5.71294C78.9431 4.75208 78.0998 3.97095 77.0629 3.97095C76.026 3.97095 75.1826 4.75208 75.1826 5.71294C75.1826 6.67381 76.026 7.45494 77.0629 7.45494Z" fill="#070707"/>
<path d="M80.8597 19.1789H84.7031V14.5059H86.0304L88.5189 19.1789H92.6942L89.8185 13.8976C91.3255 13.1717 92.2241 11.7961 92.2241 9.83291C92.2241 6.81897 90.1158 5.02168 86.9705 5.02168H80.8597V19.1789ZM84.7031 11.5196V8.09091H86.058C87.406 8.09091 88.2148 8.61627 88.2148 9.83291C88.2148 11.0426 87.406 11.5196 86.058 11.5196H84.7031Z" fill="#070707"/>
<path d="M98.7774 19.3724C101.722 19.3724 103.616 17.9622 103.976 15.7502H100.492C100.27 16.3516 99.6414 16.6903 98.8603 16.6903C97.7266 16.6903 97.063 15.9437 97.063 14.9206V14.7547H103.976V13.8699C103.976 10.4896 101.902 8.42272 98.6944 8.42272C95.404 8.42272 93.3025 10.6071 93.3025 13.8976C93.3025 17.3332 95.3763 19.3724 98.7774 19.3724ZM97.063 12.6533C97.0837 11.7339 97.8441 11.1048 98.7774 11.1048C99.7244 11.1048 100.443 11.7408 100.464 12.6533H97.063Z" fill="#070707"/>
<path d="M105.533 23.1606H109.349V17.4369H109.404C109.846 18.5152 110.869 19.3171 112.363 19.3171C114.63 19.3171 116.538 17.5475 116.538 13.8699C116.538 10.0265 114.492 8.42272 112.39 8.42272C110.814 8.42272 109.819 9.33519 109.404 10.4136H109.321V8.56097H105.533V23.1606ZM109.266 13.8699C109.266 12.2938 109.902 11.3537 110.952 11.3537C112.003 11.3537 112.611 12.2938 112.611 13.8699C112.611 15.446 112.003 16.3861 110.952 16.3861C109.902 16.3861 109.266 15.4184 109.266 13.8699Z" fill="#070707"/>
</svg>
