<svg width="14" height="14" viewBox="0 0 14 14" fill="none" xmlns="http://www.w3.org/2000/svg">
<path fill-rule="evenodd" clip-rule="evenodd" d="M4.66699 4.33398H6.66698V6.33397H4.66699V4.33398ZM8.66694 4.33398H10.6669V6.33397H8.66694V4.33398ZM4.66699 7.33396H6.66698V9.00062C6.66698 9.22284 7.00031 9.66728 7.66698 9.66728C8.33364 9.66728 8.66697 9.22284 8.66697 9.00062V7.33396H10.667V9.00062C10.667 9.55617 10.067 11.3339 7.66698 11.3339C5.33366 11.3339 4.66699 9.55617 4.66699 9.00062V7.33396Z" fill="#FDFDFD"/>
<path fill-rule="evenodd" clip-rule="evenodd" d="M7.00016 13.1118C10.3752 13.1118 13.1113 10.3757 13.1113 7.00065C13.1113 3.62558 10.3752 0.88954 7.00016 0.88954C3.62509 0.88954 0.889052 3.62558 0.889052 7.00065C0.889052 10.3757 3.62509 13.1118 7.00016 13.1118ZM7.00016 13.6673C10.6821 13.6673 13.6668 10.6825 13.6668 7.00065C13.6668 3.31875 10.6821 0.333984 7.00016 0.333984C3.31826 0.333984 0.333496 3.31875 0.333496 7.00065C0.333496 10.6825 3.31826 13.6673 7.00016 13.6673Z" fill="#FDFDFD"/>
</svg>
