<svg width="321" height="96" viewBox="0 0 321 96" fill="none" xmlns="http://www.w3.org/2000/svg">
<path fill-rule="evenodd" clip-rule="evenodd" d="M47.9948 95.9999C74.5016 95.9999 95.9896 74.5097 95.9896 48.0002C95.9896 21.4907 74.5016 0.000488281 47.9948 0.000488281C21.488 0.000488281 0 21.4907 0 48.0002C0 74.5097 21.488 95.9999 47.9948 95.9999ZM45.595 28.7992H31.1966V43.1991H45.595V28.7992ZM74.3919 28.7992H59.9935V43.1991H74.3919V28.7992ZM45.595 50.399H31.1966V62.399C31.1966 66.3989 35.9961 79.1989 52.7943 79.1989C70.0724 79.1989 74.3919 66.3989 74.3919 62.399V50.399H59.9935V62.399C59.9935 63.999 57.5937 67.1989 52.7943 67.1989C47.9948 67.1989 45.595 63.999 45.595 62.399V50.399Z" fill="#FDFDFD"/>
<path d="M134.364 62.5061H143.189C143.156 55.8367 138.014 51.4237 129.786 51.4237C121.707 51.4237 116 55.7704 116.05 62.2406C116.034 67.5496 119.716 70.5027 125.738 71.7967L129.122 72.5267C132.904 73.3563 134.198 74.3019 134.231 75.8448C134.198 77.5205 132.672 78.6984 129.719 78.6984C126.186 78.6984 124.096 77.0393 123.946 73.9203H115.188C115.221 82.4478 120.994 86.2636 129.852 86.2636C138.462 86.2636 143.621 82.5474 143.654 75.8448C143.621 70.6686 140.535 67.0353 133.037 65.426L130.25 64.8288C127.032 64.1485 125.589 63.2029 125.672 61.577C125.688 60.0839 126.932 58.9889 129.786 58.9889C132.772 58.9889 134.182 60.2996 134.364 62.5061Z" fill="#FDFDFD"/>
<path d="M160.972 86.33C169.266 86.33 174.177 81.021 174.177 73.1903C174.177 65.3597 169.266 60.0507 160.972 60.0507C152.678 60.0507 147.767 65.3597 147.767 73.1903C147.767 81.021 152.678 86.33 160.972 86.33ZM161.038 79.5611C158.583 79.5611 157.124 77.1223 157.124 73.124C157.124 69.1257 158.583 66.6869 161.038 66.6869C163.361 66.6869 164.821 69.1257 164.821 73.124C164.821 77.1223 163.361 79.5611 161.038 79.5611Z" fill="#FDFDFD"/>
<path d="M191.57 86.33C199.118 86.33 203.746 81.9999 203.845 75.2476H195.352C195.153 77.9186 193.71 79.362 191.702 79.362C189.297 79.362 187.721 77.3048 187.721 73.124C187.721 68.9432 189.297 66.886 191.702 66.886C193.726 66.886 195.103 68.3293 195.352 71.0004H203.845C203.796 64.3642 199.068 60.0507 191.57 60.0507C183.275 60.0507 178.365 65.3597 178.365 73.1903C178.365 81.021 183.275 86.33 191.57 86.33Z" fill="#FDFDFD"/>
<path d="M209.025 85.8655H218.182V60.3825H209.025V85.8655ZM213.603 57.728C216.092 57.728 218.115 55.8533 218.115 53.5472C218.115 51.2412 216.092 49.3665 213.603 49.3665C211.115 49.3665 209.091 51.2412 209.091 53.5472C209.091 55.8533 211.115 57.728 213.603 57.728Z" fill="#FDFDFD"/>
<path d="M231.349 86.2636C234.667 86.2636 237.171 85.1355 238.714 82.2819H238.913V85.8655H247.473V68.4123C247.473 63.7006 243.011 60.0507 235.728 60.0507C228.114 60.0507 224.365 64.0324 224.05 68.6777H232.477C232.693 67.1016 233.854 66.3551 235.596 66.3551C237.188 66.3551 238.316 67.0851 238.316 68.4123V68.4787C238.316 69.9552 236.69 70.4197 232.411 70.735C227.152 71.1165 223.054 73.2401 223.054 78.8311C223.054 83.9078 226.472 86.2636 231.349 86.2636ZM234.335 80.4901C232.775 80.4901 231.681 79.727 231.681 78.3002C231.681 76.9896 232.61 75.9775 234.733 75.6457C236.193 75.4135 237.42 75.1148 238.382 74.7167V76.8402C238.382 79.1629 236.408 80.4901 234.335 80.4901Z" fill="#FDFDFD"/>
<path d="M262.407 51.8882H253.25V85.8655H262.407V51.8882Z" fill="#FDFDFD"/>
<path d="M136.414 12.0523V33.0226C136.414 36.1914 134.141 38.4643 130.972 38.4643C127.804 38.4643 125.531 36.1914 125.531 33.0226V12.0523H116.308V33.8189C116.308 41.5833 122.18 46.4277 130.972 46.4277C139.698 46.4277 145.637 41.5833 145.637 33.8189V12.0523H136.414Z" fill="#FDFDFD"/>
<path d="M159.31 31.6954C159.327 29.1736 160.753 27.6473 163.026 27.6473C165.332 27.6473 166.692 29.1736 166.676 31.6954V46.0295H175.833V29.7709C175.849 24.2297 172.349 20.2148 166.941 20.2148C163.192 20.2148 160.223 22.1724 159.111 25.391H158.846V20.5466H150.153V46.0295H159.31V31.6954Z" fill="#FDFDFD"/>
<path d="M180.353 46.0295H189.51V20.5466H180.353V46.0295ZM184.931 17.8921C187.42 17.8921 189.444 16.0174 189.444 13.7113C189.444 11.4052 187.42 9.53052 184.931 9.53052C182.443 9.53052 180.419 11.4052 180.419 13.7113C180.419 16.0174 182.443 17.8921 184.931 17.8921Z" fill="#FDFDFD"/>
<path d="M194.043 46.0295H203.266V34.8144H206.451L212.423 46.0295H222.443L215.542 33.3544C219.158 31.6124 221.315 28.3109 221.315 23.5992C221.315 16.3658 216.255 12.0523 208.707 12.0523H194.043V46.0295ZM203.266 27.6473V19.4184H206.518C209.752 19.4184 211.693 20.6793 211.693 23.5992C211.693 26.5026 209.752 27.6473 206.518 27.6473H203.266Z" fill="#FDFDFD"/>
<path d="M237.041 46.494C244.108 46.494 248.653 43.1096 249.516 37.8006H241.155C240.624 39.244 239.114 40.0569 237.24 40.0569C234.519 40.0569 232.927 38.2652 232.927 35.8098V35.4116H249.516V33.288C249.516 25.1753 244.539 20.2148 236.842 20.2148C228.946 20.2148 223.903 25.4574 223.903 33.3544C223.903 41.5999 228.879 46.494 237.041 46.494ZM232.927 30.3681C232.977 28.1616 234.801 26.6519 237.041 26.6519C239.313 26.6519 241.039 28.1782 241.088 30.3681H232.927Z" fill="#FDFDFD"/>
<path d="M253.252 55.5856H262.409V41.8487H262.542C263.604 44.4368 266.059 46.3613 269.642 46.3613C275.083 46.3613 279.661 42.1142 279.661 33.288C279.661 24.0638 274.751 20.2148 269.708 20.2148C265.926 20.2148 263.537 22.4047 262.542 24.9928H262.343V20.5466H253.252V55.5856ZM262.21 33.288C262.21 29.5054 263.736 27.2491 266.258 27.2491C268.779 27.2491 270.239 29.5054 270.239 33.288C270.239 37.0707 268.779 39.327 266.258 39.327C263.736 39.327 262.21 37.0043 262.21 33.288Z" fill="#FDFDFD"/>
</svg>
