<svg width="24" height="24" viewBox="0 0 24 24" fill="none" xmlns="http://www.w3.org/2000/svg">
<path fill-rule="evenodd" clip-rule="evenodd" d="M8.5 7.99988H11.5V10.9999H8.5V7.99988ZM14.4999 7.99988H17.4999V10.9999H14.4999V7.99988ZM8.5 12.4998H11.5V14.9998C11.5 15.3332 12 15.9998 13 15.9998C14 15.9998 14.5 15.3332 14.5 14.9998V12.4998H17.4999V14.9998C17.4999 15.8332 16.6 18.4998 13 18.4998C9.49999 18.4998 8.5 15.8332 8.5 14.9998V12.4998Z" fill="#070707"/>
<path fill-rule="evenodd" clip-rule="evenodd" d="M12 21.1662C17.0626 21.1662 21.1667 17.0621 21.1667 11.9995C21.1667 6.9369 17.0626 2.83285 12 2.83285C6.93739 2.83285 2.83333 6.9369 2.83333 11.9995C2.83333 17.0621 6.93739 21.1662 12 21.1662ZM12 21.9995C17.5228 21.9995 22 17.5224 22 11.9995C22 6.47666 17.5228 1.99951 12 1.99951C6.47715 1.99951 2 6.47666 2 11.9995C2 17.5224 6.47715 21.9995 12 21.9995Z" fill="#070707"/>
</svg>
