<svg width="24" height="24" viewBox="0 0 24 24" fill="none" xmlns="http://www.w3.org/2000/svg">
<path d="M15.9722 7.96713C15.9722 9.51718 15.5003 10.9012 14.7614 11.8865C14.0225 12.8716 13.04 13.4343 11.9968 13.4343C10.9537 13.4343 9.97113 12.8716 9.23228 11.8865C8.49332 10.9012 8.02148 9.51718 8.02148 7.96713C8.02148 6.41707 8.49332 5.03301 9.23228 4.04773C9.97113 3.06261 10.9537 2.5 11.9968 2.5C13.04 2.5 14.0225 3.06261 14.7614 4.04773C15.5003 5.03301 15.9722 6.41707 15.9722 7.96713Z" stroke="black" stroke-miterlimit="5"/>
<path d="M9.5 12.4954C9.5 12.4954 4.50536 13.4949 3.79304 15.4789C3.24379 16.9339 2.97624 18.9013 3.00165 20.5853C3.00948 21.1037 3.44482 21.5 3.96321 21.5H20.0361C20.553 21.5 20.9876 21.1059 20.9974 20.5891C21.0293 18.9054 20.7682 16.9363 20.225 15.4789C19.5052 13.4949 14.5 12.4954 14.5 12.4954" stroke="black" stroke-miterlimit="5"/>
</svg>
